<svg version="1.1" id="Layer_1" xmlns="http://www.w3.org/2000/svg" xmlns:xlink="http://www.w3.org/1999/xlink" x="0px" y="0px"
	 width="100%" viewBox="0 0 2000 2000" enable-background="new 0 0 2000 2000" xml:space="preserve">
<path fill="#000000" opacity="1.000000" stroke="none" 
	d="
M915.000000,2001.000000 
	C610.000000,2001.000000 305.500000,2001.000000 1.000000,2001.000000 
	C1.000000,1334.333374 1.000000,667.666687 1.000000,1.000000 
	C667.666687,1.000000 1334.333374,1.000000 2001.000000,1.000000 
	C2001.000000,667.666687 2001.000000,1334.333374 2001.000000,2001.000000 
	C1639.166626,2001.000000 1277.333374,2001.000000 915.000000,2001.000000 
M707.671936,815.705383 
	C708.818848,814.152588 709.965759,812.599854 711.667542,810.786377 
	C713.529419,808.569092 715.357178,806.322083 717.258911,804.139526 
	C726.202637,793.874878 734.476196,782.905579 744.278564,773.536987 
	C760.708008,757.834412 778.116455,743.156128 795.727234,727.752075 
	C796.563965,727.244873 797.423950,726.772156 798.234009,726.225464 
	C813.192078,716.130737 827.772461,705.415039 843.179871,696.061218 
	C869.932922,679.819580 898.515869,667.284363 928.737976,656.668945 
	C932.201111,655.438965 935.664246,654.208923 939.848328,652.991882 
	C941.582214,652.362915 943.316040,651.733887 945.842346,651.014832 
	C951.583191,649.324646 957.324097,647.634460 963.783020,645.988159 
	C964.871887,645.693726 965.960815,645.399231 967.867920,645.021362 
	C978.295837,642.989136 988.660767,640.514099 999.165405,639.021973 
	C1017.846924,636.368347 1036.558716,633.297302 1055.359009,632.289917 
	C1073.816040,631.301025 1092.428955,632.126648 1110.917603,633.157104 
	C1126.491333,634.025085 1142.180298,635.313293 1157.466553,638.247681 
	C1178.163208,642.220642 1198.700684,647.325439 1218.971924,653.115479 
	C1234.791748,657.634155 1250.101929,663.937012 1266.821533,669.866638 
	C1265.642212,668.314575 1265.189453,667.265381 1264.391846,666.739136 
	C1256.308960,661.406677 1248.438721,655.674255 1239.989380,650.991333 
	C1223.194336,641.682800 1206.300049,632.491455 1189.011475,624.154541 
	C1175.318237,617.551331 1161.195801,611.676819 1146.873657,606.573792 
	C1118.973755,596.632812 1090.606079,588.113708 1061.169312,583.975159 
	C1040.201660,581.027283 1019.216370,577.470398 998.123779,576.347717 
	C976.429932,575.193054 954.560120,576.000549 932.835693,577.194275 
	C915.635498,578.139343 898.377197,580.082764 881.436707,583.180176 
	C859.735718,587.147888 838.032410,591.696716 816.857178,597.818176 
	C777.602478,609.166077 740.238647,625.308899 704.329834,646.283691 
	C701.018555,648.596008 697.777771,651.018066 694.382751,653.200012 
	C684.471863,659.569519 674.152588,665.365662 664.638733,672.275024 
	C652.700867,680.944641 641.185486,690.237427 629.894836,699.744568 
	C619.958313,708.111389 610.582153,717.143616 600.344238,726.198181 
	C595.776001,731.083740 591.027466,735.814331 586.673340,740.883789 
	C573.504150,756.216431 560.150635,771.411011 547.542480,787.197449 
	C540.336426,796.219971 534.441101,806.289307 527.338562,816.206482 
	C525.571594,818.955688 523.684082,821.635681 522.058105,824.465881 
	C514.461426,837.688782 506.031097,850.530151 499.598724,864.301819 
	C489.903320,885.059448 481.422424,906.397034 472.850769,927.659668 
	C469.957428,934.836731 468.357605,942.535217 465.803619,950.669189 
	C462.197266,964.784729 458.059509,978.791077 455.132172,993.046082 
	C452.134796,1007.642151 450.187103,1022.461914 448.043854,1037.222168 
	C446.790131,1045.856079 445.801849,1054.546753 445.168396,1063.246460 
	C444.724823,1069.337891 445.082794,1075.487915 445.082794,1081.808472 
	C447.791138,1079.646240 450.664093,1077.491455 453.383972,1075.158325 
	C468.818115,1061.918213 485.988892,1051.252319 503.810333,1041.658569 
	C525.408386,1030.031860 548.086304,1020.782532 571.721497,1014.312988 
	C586.248413,1010.336609 601.137573,1007.432373 616.030090,1005.112244 
	C631.298279,1002.733521 646.734497,1000.834473 662.158447,1000.189697 
	C687.648499,999.124329 713.152344,1000.009766 738.434631,1004.009583 
	C751.724854,1006.112122 765.113037,1007.838806 778.221863,1010.782104 
	C793.572327,1014.228760 808.699158,1018.699097 823.865845,1022.930176 
	C854.631653,1031.512817 884.223999,1043.286255 913.150330,1056.699097 
	C928.681885,1063.900757 943.874878,1071.841309 959.139404,1079.608154 
	C986.774414,1093.668945 1014.053345,1108.468750 1042.032227,1121.803101 
	C1069.322021,1134.808960 1097.789795,1145.021362 1126.871704,1153.454590 
	C1161.723633,1163.561035 1197.248169,1170.292236 1233.387939,1172.696411 
	C1252.221436,1173.949219 1271.261108,1172.699585 1290.179565,1171.908691 
	C1308.242798,1171.153320 1326.006714,1168.027466 1343.705444,1164.158203 
	C1367.073120,1159.049683 1389.548218,1151.511353 1411.336670,1141.815918 
	C1437.473755,1130.185547 1460.320679,1113.293335 1483.092651,1096.334961 
	C1486.732788,1093.624268 1489.844971,1090.204468 1493.788330,1086.571533 
	C1483.611450,1086.000122 1474.849609,1085.393311 1466.077515,1085.039307 
	C1447.527832,1084.290771 1428.971436,1083.710571 1410.421021,1082.978027 
	C1405.808838,1082.796021 1401.193848,1082.432861 1396.606445,1081.918457 
	C1382.560059,1080.343628 1368.510254,1078.780029 1354.492798,1076.972412 
	C1342.104492,1075.374878 1329.647583,1074.003662 1317.419556,1071.544922 
	C1300.725830,1068.188110 1284.113037,1064.298218 1267.656738,1059.918457 
	C1234.252686,1051.028198 1202.315308,1038.788574 1175.070923,1016.639038 
	C1155.168457,1000.458496 1141.781860,980.799072 1141.971558,953.265259 
	C1141.927490,952.511902 1141.883423,951.758484 1141.968384,950.250366 
	C1141.985962,949.235535 1142.003418,948.220764 1142.698730,946.727112 
	C1143.577637,935.997131 1147.370239,926.027039 1153.142212,917.306152 
	C1165.889404,898.046265 1182.497192,882.870300 1202.873291,871.437622 
	C1217.906006,863.002930 1233.384766,856.165588 1249.914917,851.596436 
	C1266.291870,847.069519 1283.027100,844.047791 1299.989258,844.189453 
	C1316.651245,844.328613 1333.372070,845.347229 1349.935425,847.173218 
	C1366.880615,849.041138 1383.763794,851.867004 1400.488525,855.204285 
	C1412.634277,857.627808 1424.477539,861.566956 1436.455688,864.830322 
	C1436.619995,864.287109 1436.784302,863.743896 1436.948608,863.200684 
	C1386.426636,836.193420 1332.184692,820.894836 1275.265259,815.150085 
	C1217.850830,809.355225 1160.954102,813.091980 1104.973999,827.971191 
	C1049.383423,842.746887 998.628906,867.270874 953.198669,904.079895 
	C953.198669,902.358032 953.056335,901.879700 953.218994,901.727783 
	C963.444824,892.173767 973.376831,882.270691 984.037598,873.226990 
	C993.837097,864.914001 1004.105896,857.058289 1014.752869,849.867188 
	C1025.462524,842.633728 1036.893311,836.468140 1048.627197,829.759033 
	C1049.454712,829.188782 1050.282227,828.618530 1051.782715,827.985962 
	C1053.204956,827.025818 1054.627319,826.065613 1056.801636,825.014893 
	C1058.324219,824.429932 1059.861938,823.881531 1061.366943,823.254517 
	C1075.635376,817.309448 1089.837646,811.199036 1104.187378,805.457642 
	C1111.916992,802.364929 1119.723511,799.134216 1127.798218,797.299622 
	C1147.730347,792.771118 1167.759521,788.558350 1187.900757,785.098206 
	C1202.127563,782.654175 1216.567139,780.823486 1230.974365,780.225281 
	C1246.705688,779.572266 1262.531006,780.249939 1278.274292,781.104492 
	C1291.907715,781.844482 1305.619995,782.852417 1319.052490,785.164001 
	C1338.254517,788.468506 1357.299805,792.787231 1376.280273,797.234680 
	C1385.915039,799.492249 1395.261597,802.979309 1404.738525,805.910583 
	C1403.901855,803.835693 1402.588989,802.442261 1400.983154,801.623474 
	C1390.446411,796.250854 1380.074097,790.467957 1369.214233,785.836548 
	C1352.349365,778.644043 1335.334961,771.699341 1318.030273,765.663208 
	C1288.072266,755.213257 1257.165649,748.468323 1225.622559,745.043823 
	C1208.751709,743.212219 1191.793091,741.507141 1174.848877,741.217896 
	C1156.674194,740.907654 1138.458496,742.107605 1120.283081,743.071228 
	C1109.267578,743.655334 1098.142700,744.227356 1087.335449,746.244446 
	C1067.707397,749.908020 1048.219971,754.393860 1028.782593,758.995117 
	C1001.692078,765.408203 975.953369,775.705200 950.908752,787.680176 
	C940.624084,792.597778 930.741272,798.389587 920.851196,804.088379 
	C912.094360,809.134094 903.581055,814.602356 894.255127,820.003052 
	C890.450439,822.550720 886.451660,824.853760 882.876282,827.690491 
	C870.392700,837.594910 858.055481,847.683716 845.293091,857.313049 
	C845.169861,857.183289 845.046570,857.053528 845.031006,856.223877 
	C848.651123,852.019958 852.003418,847.543030 855.949585,843.671448 
	C863.127502,836.629517 870.658325,829.947266 878.647339,822.800842 
	C884.936829,817.850220 891.118896,812.755127 897.539673,807.981140 
	C908.509399,799.824890 919.056396,790.885559 930.812805,784.049744 
	C950.928650,772.353333 971.565613,761.457092 992.518250,751.330811 
	C1005.859314,744.883057 1020.164551,740.430542 1034.810669,735.010986 
	C1037.206055,734.285095 1039.601562,733.559204 1042.654419,732.937012 
	C1043.436401,732.568970 1044.218506,732.200867 1045.776489,731.870911 
	C1069.577637,724.939941 1093.634277,719.288147 1118.386230,716.939270 
	C1130.649048,715.775513 1142.864136,713.502197 1155.137207,713.196594 
	C1172.719238,712.758667 1190.365112,713.134460 1207.926636,714.150818 
	C1223.506226,715.052429 1239.061646,716.911133 1254.532104,719.041565 
	C1282.375244,722.875854 1309.356934,730.272644 1335.746216,739.902100 
	C1340.162964,741.513672 1344.737061,742.693909 1350.740845,744.533875 
	C1349.047241,742.563843 1348.484253,741.449158 1347.579102,740.926575 
	C1337.654419,735.196289 1327.938599,729.018188 1317.651855,724.020203 
	C1301.766479,716.302002 1285.636230,709.033936 1269.327148,702.254944 
	C1246.348145,692.703430 1222.621216,685.179260 1198.266602,680.129761 
	C1178.542480,676.040344 1158.620483,672.643555 1138.635254,670.152100 
	C1120.654175,667.910522 1102.472534,666.349731 1084.370117,666.253052 
	C1063.744263,666.142944 1043.088013,667.694946 1022.483887,669.096191 
	C1010.856506,669.886963 999.184814,671.193176 987.751465,673.399170 
	C970.395752,676.747986 953.135193,680.710449 936.005859,685.084351 
	C910.731262,691.537964 886.130737,700.074829 862.505127,711.217346 
	C852.560425,715.907532 842.798401,720.985046 832.321655,725.993835 
	C831.530945,726.627502 830.740173,727.261108 829.225037,728.025940 
	C826.134094,729.647949 823.043152,731.270020 819.244019,733.008118 
	C809.112976,739.352234 798.582947,745.148132 788.941589,752.165100 
	C773.284485,763.560242 758.098999,775.616577 742.952698,787.692566 
	C738.099243,791.562195 734.080139,796.462830 729.531006,800.733826 
	C725.105835,804.888550 720.490967,808.841125 715.354370,813.186951 
	C708.293335,820.862549 701.232361,828.538147 694.171326,836.213745 
	C693.773621,835.843140 693.375916,835.472534 692.978271,835.101929 
	C693.654358,834.231873 694.378235,833.394409 694.998535,832.486267 
	C698.053040,828.014587 701.080017,823.524231 704.673035,818.778137 
	C705.486328,817.866699 706.299622,816.955261 707.671936,815.705383 
M633.854431,1429.979614 
	C648.490112,1433.767578 663.012939,1438.094604 677.793884,1441.188477 
	C691.944580,1444.150391 706.312012,1446.268921 720.678345,1447.956787 
	C736.228027,1449.783569 751.885315,1451.714233 767.498108,1451.734253 
	C788.490356,1451.761230 809.496460,1450.194214 830.473145,1448.923340 
	C840.154175,1448.336914 849.897278,1447.441040 859.403564,1445.604980 
	C875.359070,1442.523315 891.322998,1439.204590 906.959534,1434.828613 
	C924.321289,1429.969727 941.826782,1424.998413 958.350159,1417.927246 
	C979.391296,1408.922852 999.895264,1398.457520 1019.925537,1387.350098 
	C1043.367432,1374.350708 1064.765015,1358.110107 1084.368164,1339.876099 
	C1098.194702,1327.015381 1110.650146,1312.673096 1123.589722,1298.872192 
	C1126.331787,1295.947510 1128.517578,1292.501099 1130.959595,1289.295166 
	C1130.561890,1288.960083 1130.164185,1288.625000 1129.766479,1288.289917 
	C1128.835938,1289.030396 1127.858765,1289.719604 1126.981934,1290.518921 
	C1115.475952,1301.006348 1104.151855,1311.700439 1092.451904,1321.966309 
	C1071.926514,1339.976074 1049.067383,1354.660522 1024.763550,1366.911987 
	C1007.854126,1375.435791 990.610107,1383.496094 972.936707,1390.248169 
	C955.007568,1397.098267 936.612427,1403.099854 917.970703,1407.610352 
	C898.710571,1412.270752 878.956726,1415.011841 859.325623,1417.974731 
	C846.618652,1419.892334 833.762939,1421.518433 820.940369,1421.812378 
	C802.347717,1422.239014 783.683960,1421.994141 765.126343,1420.828125 
	C746.897217,1419.682983 728.726624,1417.309937 710.596008,1414.968018 
	C687.630737,1412.001587 665.208679,1406.382935 643.298096,1398.997559 
	C627.316223,1393.610474 611.599182,1387.421997 595.853027,1381.359863 
	C590.399475,1379.260254 585.213562,1376.465210 579.905396,1373.987915 
	C587.722717,1374.807373 595.196228,1376.449341 602.606079,1378.340332 
	C628.886780,1385.046387 655.729919,1388.594238 682.680237,1389.667603 
	C705.508972,1390.576782 728.498596,1389.384644 751.324463,1387.794678 
	C768.678284,1386.585938 786.095764,1384.283203 803.111206,1380.695068 
	C828.811829,1375.275269 853.923340,1367.614746 878.287842,1357.467651 
	C903.622192,1346.916504 928.027283,1334.742920 950.357788,1318.792114 
	C963.220398,1309.604370 975.913940,1300.030029 987.694946,1289.521484 
	C998.829285,1279.589478 1008.694824,1268.231079 1019.034485,1257.419922 
	C1019.852722,1256.564331 1020.015869,1255.082520 1020.483459,1253.891724 
	C1016.268738,1256.072876 1013.253174,1258.889404 1010.011292,1261.415405 
	C998.978088,1270.012207 988.154480,1278.918823 976.717468,1286.947266 
	C957.498413,1300.438110 936.675110,1311.190430 915.075134,1320.306396 
	C902.366943,1325.669678 889.525146,1331.016479 876.286865,1334.753296 
	C856.565247,1340.320068 836.592590,1345.295532 816.442444,1348.959229 
	C797.693237,1352.367920 778.623108,1354.794922 759.601013,1355.704712 
	C739.446960,1356.668579 719.154358,1355.880981 698.976074,1354.827759 
	C683.369873,1354.013306 667.673218,1352.547729 652.323059,1349.713135 
	C621.855042,1344.087036 591.827515,1336.496338 562.963562,1324.912476 
	C560.517212,1323.930786 558.080811,1322.920898 555.666931,1321.862305 
	C553.486389,1320.906006 551.342957,1319.864990 548.234131,1318.420288 
	C549.838196,1318.164917 550.195007,1317.997314 550.481384,1318.078369 
	C578.050476,1325.872314 606.352844,1329.176758 634.800842,1330.794678 
	C649.342957,1331.621704 664.024780,1330.718994 678.607178,1329.928955 
	C697.084656,1328.928101 714.945923,1324.747803 732.157349,1317.839722 
	C753.163208,1309.408691 771.951904,1297.842529 785.850098,1279.545044 
	C797.657227,1264.000732 801.389343,1246.572388 795.752563,1227.799316 
	C790.535278,1210.422852 778.432922,1197.822266 764.372253,1187.254272 
	C746.448425,1173.782593 726.184814,1164.553467 705.195679,1156.943237 
	C678.235107,1147.167847 650.440063,1140.514282 622.175415,1135.968384 
	C599.121155,1132.260620 575.982544,1129.023438 552.817749,1126.078247 
	C540.386780,1124.497803 527.835876,1123.705200 515.313538,1123.035645 
	C497.950500,1122.107300 480.565369,1121.567261 463.185394,1120.991333 
	C456.967590,1120.785278 450.737244,1120.958374 444.194244,1120.958374 
	C444.153809,1121.473267 443.939697,1122.445068 444.025330,1123.389526 
	C444.635315,1130.116821 445.305481,1136.838867 445.958405,1143.562256 
	C446.994629,1154.232788 447.339691,1165.026978 449.220032,1175.546631 
	C452.659210,1194.787598 456.650482,1213.948364 461.056396,1232.993408 
	C468.084900,1263.375122 479.063965,1292.471313 492.043030,1320.735962 
	C503.392700,1345.452026 516.991333,1368.977905 532.184021,1391.600464 
	C548.001892,1415.153809 565.390503,1437.438721 584.783630,1458.099243 
	C594.332031,1468.271729 604.846313,1477.532227 614.810852,1487.320190 
	C633.490723,1505.668701 654.462769,1521.119995 675.985107,1535.868774 
	C700.415344,1552.609985 726.456970,1566.459106 753.381042,1578.716187 
	C773.944031,1588.077515 795.085510,1595.801392 816.703979,1602.393066 
	C855.828186,1614.322388 895.835999,1621.243774 936.568481,1623.768311 
	C952.237122,1624.739380 968.036194,1624.475830 983.736755,1623.827515 
	C1001.384521,1623.098755 1019.030212,1621.697266 1036.597290,1619.837280 
	C1049.982300,1618.420044 1063.400269,1616.535522 1076.526123,1613.612549 
	C1101.874512,1607.967896 1126.977661,1601.342407 1151.329956,1592.067383 
	C1176.144775,1582.615845 1200.501343,1572.112671 1223.357788,1558.641724 
	C1242.453613,1547.386841 1261.392456,1535.642334 1279.202026,1522.491333 
	C1297.228882,1509.180054 1314.422485,1494.557983 1330.791748,1479.239136 
	C1345.170288,1465.782959 1358.380371,1450.977295 1371.214966,1436.003540 
	C1382.014404,1423.404175 1392.032227,1410.051636 1401.472412,1396.394287 
	C1410.540527,1383.275513 1418.616211,1369.451294 1426.741089,1355.708496 
	C1430.636108,1349.120361 1433.637573,1342.004028 1437.631592,1334.730713 
	C1454.192627,1302.653931 1467.014648,1269.127808 1475.944580,1234.168579 
	C1484.807983,1199.469727 1491.051147,1164.356201 1491.032715,1128.385986 
	C1489.344604,1133.518188 1488.627319,1138.787231 1487.982910,1144.065308 
	C1486.866089,1153.210327 1486.361694,1162.473511 1484.570923,1171.482544 
	C1481.855347,1185.143555 1478.414917,1198.668945 1475.003906,1212.181519 
	C1467.950806,1240.123047 1457.981323,1267.030762 1445.459595,1292.969238 
	C1440.888428,1302.438599 1435.748535,1311.633423 1430.318848,1321.298950 
	C1429.530640,1322.819580 1428.742432,1324.340210 1427.496704,1326.073486 
	C1427.377808,1326.367676 1427.258789,1326.661865 1427.020752,1327.405273 
	C1427.020752,1327.405273 1426.964355,1327.866577 1426.516602,1328.085571 
	C1426.196167,1328.292725 1426.076050,1328.583008 1425.832153,1329.582153 
	C1418.198120,1341.097046 1411.239990,1353.137939 1402.779053,1364.009155 
	C1388.309570,1382.600586 1373.653320,1401.159912 1357.643066,1418.402832 
	C1344.961182,1432.061157 1330.356323,1443.984741 1316.206055,1456.216797 
	C1295.702148,1473.941040 1273.135864,1488.814331 1249.856079,1502.612305 
	C1228.393311,1515.333252 1206.183838,1526.658325 1182.847534,1535.444092 
	C1163.656616,1542.669312 1144.196899,1549.341309 1124.494263,1554.996948 
	C1108.112061,1559.699341 1091.334473,1563.410156 1074.494629,1566.037231 
	C1052.383301,1569.486206 1030.095825,1572.334595 1007.776733,1573.750488 
	C990.428711,1574.851196 972.876038,1573.988770 955.488037,1572.862183 
	C935.921021,1571.594360 916.396790,1569.374878 896.926453,1566.980225 
	C873.213440,1564.064087 850.154785,1557.885620 827.382690,1550.904053 
	C791.965027,1540.045532 758.031311,1525.544434 725.733582,1507.324097 
	C720.324890,1504.272705 714.987427,1501.094971 709.617004,1497.975708 
	C711.649780,1497.858887 713.292480,1498.473145 714.949219,1499.046753 
	C746.442261,1509.951294 778.569702,1518.253174 811.740662,1522.012695 
	C826.150757,1523.645996 840.609192,1525.414062 855.081909,1525.815674 
	C884.092285,1526.620972 913.134521,1526.422607 941.921814,1521.916382 
	C956.005371,1519.711426 970.150391,1517.619507 984.026245,1514.427368 
	C1010.486267,1508.340332 1036.300293,1500.098022 1061.301392,1489.359131 
	C1086.050537,1478.728394 1109.894409,1466.444214 1132.561157,1451.872437 
	C1154.395752,1437.835693 1175.105225,1422.267212 1193.910522,1404.419800 
	C1211.338379,1387.879761 1228.537842,1370.998047 1242.821777,1351.516479 
	C1251.083496,1340.248413 1259.075684,1328.781494 1267.087769,1317.333008 
	C1268.220093,1315.715210 1268.774902,1313.693359 1269.597046,1311.858643 
	C1269.193970,1311.667725 1268.791016,1311.476807 1268.387939,1311.285889 
	C1267.680054,1311.927246 1266.863770,1312.483032 1266.280273,1313.222412 
	C1252.540894,1330.629395 1238.414673,1347.682617 1221.402710,1362.077759 
	C1210.956177,1370.917358 1200.552979,1379.812622 1189.951660,1388.463867 
	C1166.349854,1407.723755 1140.395386,1423.445190 1113.126953,1436.724731 
	C1093.626831,1446.221069 1073.438232,1454.512939 1053.031250,1461.888672 
	C1021.741028,1473.197876 989.519409,1481.316650 956.357727,1485.023926 
	C936.052734,1487.293823 915.723999,1489.667236 895.339539,1490.801270 
	C881.125244,1491.592041 866.777100,1490.735962 852.527527,1489.929932 
	C836.881042,1489.045044 821.200134,1487.962280 805.679565,1485.881592 
	C789.594666,1483.724976 773.482483,1481.081299 757.747925,1477.176880 
	C737.725525,1472.208496 717.906494,1466.258911 698.300171,1459.817749 
	C675.382446,1452.288818 653.551575,1442.055786 632.682983,1430.281250 
	C632.813171,1430.156860 632.943298,1430.032349 633.854431,1429.979614 
z"/>
<path fill="#1E5C8F" opacity="1.000000" stroke="none" 
	d="
M1427.954102,1325.860840 
	C1428.742432,1324.340210 1429.530640,1322.819580 1430.899414,1321.290039 
	C1436.382935,1323.584473 1438.700562,1327.139038 1437.104858,1332.677490 
	C1436.886230,1333.436768 1437.054565,1334.307617 1437.043701,1335.126831 
	C1433.637573,1342.004028 1430.636108,1349.120361 1426.741089,1355.708496 
	C1418.616211,1369.451294 1410.540527,1383.275513 1401.472412,1396.394287 
	C1392.032227,1410.051636 1382.014404,1423.404175 1371.214966,1436.003540 
	C1358.380371,1450.977295 1345.170288,1465.782959 1330.791748,1479.239136 
	C1314.422485,1494.557983 1297.228882,1509.180054 1279.202026,1522.491333 
	C1261.392456,1535.642334 1242.453613,1547.386841 1223.357788,1558.641724 
	C1200.501343,1572.112671 1176.144775,1582.615845 1151.329956,1592.067383 
	C1126.977661,1601.342407 1101.874512,1607.967896 1076.526123,1613.612549 
	C1063.400269,1616.535522 1049.982300,1618.420044 1036.597290,1619.837280 
	C1019.030212,1621.697266 1001.384521,1623.098755 983.736755,1623.827515 
	C968.036194,1624.475830 952.237122,1624.739380 936.568481,1623.768311 
	C895.835999,1621.243774 855.828186,1614.322388 816.703979,1602.393066 
	C795.085510,1595.801392 773.944031,1588.077515 753.381042,1578.716187 
	C726.456970,1566.459106 700.415344,1552.609985 675.985107,1535.868774 
	C654.462769,1521.119995 633.490723,1505.668701 614.810852,1487.320190 
	C604.846313,1477.532227 594.332031,1468.271729 584.783630,1458.099243 
	C565.390503,1437.438721 548.001892,1415.153809 532.184021,1391.600464 
	C516.991333,1368.977905 503.392700,1345.452026 492.043030,1320.735962 
	C479.063965,1292.471313 468.084900,1263.375122 461.056396,1232.993408 
	C456.650482,1213.948364 452.659210,1194.787598 449.220032,1175.546631 
	C447.339691,1165.026978 446.994629,1154.232788 445.958405,1143.562256 
	C445.305481,1136.838867 444.635315,1130.116821 444.025330,1123.389526 
	C443.939697,1122.445068 444.153809,1121.473267 444.194244,1120.958374 
	C450.737244,1120.958374 456.967590,1120.785278 463.185394,1120.991333 
	C480.565369,1121.567261 497.950500,1122.107300 515.313538,1123.035645 
	C527.835876,1123.705200 540.386780,1124.497803 552.817749,1126.078247 
	C575.982544,1129.023438 599.121155,1132.260620 622.175415,1135.968384 
	C650.440063,1140.514282 678.235107,1147.167847 705.195679,1156.943237 
	C726.184814,1164.553467 746.448425,1173.782593 764.372253,1187.254272 
	C778.432922,1197.822266 790.535278,1210.422852 795.752563,1227.799316 
	C801.389343,1246.572388 797.657227,1264.000732 785.850098,1279.545044 
	C771.951904,1297.842529 753.163208,1309.408691 732.157349,1317.839722 
	C714.945923,1324.747803 697.084656,1328.928101 678.607178,1329.928955 
	C664.024780,1330.718994 649.342957,1331.621704 634.800842,1330.794678 
	C606.352844,1329.176758 578.050476,1325.872314 550.481384,1318.078369 
	C550.195007,1317.997314 549.838196,1318.164917 548.234131,1318.420288 
	C551.342957,1319.864990 553.486389,1320.906006 555.666931,1321.862305 
	C558.080811,1322.920898 560.517212,1323.930786 562.963562,1324.912476 
	C591.827515,1336.496338 621.855042,1344.087036 652.323059,1349.713135 
	C667.673218,1352.547729 683.369873,1354.013306 698.976074,1354.827759 
	C719.154358,1355.880981 739.446960,1356.668579 759.601013,1355.704712 
	C778.623108,1354.794922 797.693237,1352.367920 816.442444,1348.959229 
	C836.592590,1345.295532 856.565247,1340.320068 876.286865,1334.753296 
	C889.525146,1331.016479 902.366943,1325.669678 915.075134,1320.306396 
	C936.675110,1311.190430 957.498413,1300.438110 976.717468,1286.947266 
	C988.154480,1278.918823 998.978088,1270.012207 1010.011292,1261.415405 
	C1013.253174,1258.889404 1016.268738,1256.072876 1020.483459,1253.891724 
	C1020.015869,1255.082520 1019.852722,1256.564331 1019.034485,1257.419922 
	C1008.694824,1268.231079 998.829285,1279.589478 987.694946,1289.521484 
	C975.913940,1300.030029 963.220398,1309.604370 950.357788,1318.792114 
	C928.027283,1334.742920 903.622192,1346.916504 878.287842,1357.467651 
	C853.923340,1367.614746 828.811829,1375.275269 803.111206,1380.695068 
	C786.095764,1384.283203 768.678284,1386.585938 751.324463,1387.794678 
	C728.498596,1389.384644 705.508972,1390.576782 682.680237,1389.667603 
	C655.729919,1388.594238 628.886780,1385.046387 602.606079,1378.340332 
	C595.196228,1376.449341 587.722717,1374.807373 579.905396,1373.987915 
	C585.213562,1376.465210 590.399475,1379.260254 595.853027,1381.359863 
	C611.599182,1387.421997 627.316223,1393.610474 643.298096,1398.997559 
	C665.208679,1406.382935 687.630737,1412.001587 710.596008,1414.968018 
	C728.726624,1417.309937 746.897217,1419.682983 765.126343,1420.828125 
	C783.683960,1421.994141 802.347717,1422.239014 820.940369,1421.812378 
	C833.762939,1421.518433 846.618652,1419.892334 859.325623,1417.974731 
	C878.956726,1415.011841 898.710571,1412.270752 917.970703,1407.610352 
	C936.612427,1403.099854 955.007568,1397.098267 972.936707,1390.248169 
	C990.610107,1383.496094 1007.854126,1375.435791 1024.763550,1366.911987 
	C1049.067383,1354.660522 1071.926514,1339.976074 1092.451904,1321.966309 
	C1104.151855,1311.700439 1115.475952,1301.006348 1126.981934,1290.518921 
	C1127.858765,1289.719604 1128.835938,1289.030396 1129.766479,1288.289917 
	C1130.164185,1288.625000 1130.561890,1288.960083 1130.959595,1289.295166 
	C1128.517578,1292.501099 1126.331787,1295.947510 1123.589722,1298.872192 
	C1110.650146,1312.673096 1098.194702,1327.015381 1084.368164,1339.876099 
	C1064.765015,1358.110107 1043.367432,1374.350708 1019.925537,1387.350098 
	C999.895264,1398.457520 979.391296,1408.922852 958.350159,1417.927246 
	C941.826782,1424.998413 924.321289,1429.969727 906.959534,1434.828613 
	C891.322998,1439.204590 875.359070,1442.523315 859.403564,1445.604980 
	C849.897278,1447.441040 840.154175,1448.336914 830.473145,1448.923340 
	C809.496460,1450.194214 788.490356,1451.761230 767.498108,1451.734253 
	C751.885315,1451.714233 736.228027,1449.783569 720.678345,1447.956787 
	C706.312012,1446.268921 691.944580,1444.150391 677.793884,1441.188477 
	C663.012939,1438.094604 648.490112,1433.767578 633.322144,1429.697754 
	C632.144287,1429.342285 631.498840,1429.268555 630.145996,1429.114014 
	C631.287292,1429.932739 631.788696,1430.292480 632.290100,1430.652100 
	C653.551575,1442.055786 675.382446,1452.288818 698.300171,1459.817749 
	C717.906494,1466.258911 737.725525,1472.208496 757.747925,1477.176880 
	C773.482483,1481.081299 789.594666,1483.724976 805.679565,1485.881592 
	C821.200134,1487.962280 836.881042,1489.045044 852.527527,1489.929932 
	C866.777100,1490.735962 881.125244,1491.592041 895.339539,1490.801270 
	C915.723999,1489.667236 936.052734,1487.293823 956.357727,1485.023926 
	C989.519409,1481.316650 1021.741028,1473.197876 1053.031250,1461.888672 
	C1073.438232,1454.512939 1093.626831,1446.221069 1113.126953,1436.724731 
	C1140.395386,1423.445190 1166.349854,1407.723755 1189.951660,1388.463867 
	C1200.552979,1379.812622 1210.956177,1370.917358 1221.402710,1362.077759 
	C1238.414673,1347.682617 1252.540894,1330.629395 1266.280273,1313.222412 
	C1266.863770,1312.483032 1267.680054,1311.927246 1268.387939,1311.285889 
	C1268.791016,1311.476807 1269.193970,1311.667725 1269.597046,1311.858643 
	C1268.774902,1313.693359 1268.220093,1315.715210 1267.087769,1317.333008 
	C1259.075684,1328.781494 1251.083496,1340.248413 1242.821777,1351.516479 
	C1228.537842,1370.998047 1211.338379,1387.879761 1193.910522,1404.419800 
	C1175.105225,1422.267212 1154.395752,1437.835693 1132.561157,1451.872437 
	C1109.894409,1466.444214 1086.050537,1478.728394 1061.301392,1489.359131 
	C1036.300293,1500.098022 1010.486267,1508.340332 984.026245,1514.427368 
	C970.150391,1517.619507 956.005371,1519.711426 941.921814,1521.916382 
	C913.134521,1526.422607 884.092285,1526.620972 855.081909,1525.815674 
	C840.609192,1525.414062 826.150757,1523.645996 811.740662,1522.012695 
	C778.569702,1518.253174 746.442261,1509.951294 714.949219,1499.046753 
	C713.292480,1498.473145 711.649780,1497.858887 709.617004,1497.975708 
	C714.987427,1501.094971 720.324890,1504.272705 725.733582,1507.324097 
	C758.031311,1525.544434 791.965027,1540.045532 827.382690,1550.904053 
	C850.154785,1557.885620 873.213440,1564.064087 896.926453,1566.980225 
	C916.396790,1569.374878 935.921021,1571.594360 955.488037,1572.862183 
	C972.876038,1573.988770 990.428711,1574.851196 1007.776733,1573.750488 
	C1030.095825,1572.334595 1052.383301,1569.486206 1074.494629,1566.037231 
	C1091.334473,1563.410156 1108.112061,1559.699341 1124.494263,1554.996948 
	C1144.196899,1549.341309 1163.656616,1542.669312 1182.847534,1535.444092 
	C1206.183838,1526.658325 1228.393311,1515.333252 1249.856079,1502.612305 
	C1273.135864,1488.814331 1295.702148,1473.941040 1316.206055,1456.216797 
	C1330.356323,1443.984741 1344.961182,1432.061157 1357.643066,1418.402832 
	C1373.653320,1401.159912 1388.309570,1382.600586 1402.779053,1364.009155 
	C1411.239990,1353.137939 1418.198120,1341.097046 1426.132568,1329.090332 
	C1426.611328,1328.355469 1426.788452,1328.111450 1426.964355,1327.866577 
	C1426.964355,1327.866577 1427.020752,1327.405273 1427.220215,1327.001221 
	C1427.599243,1326.352905 1427.777466,1326.107422 1427.954102,1325.860840 
z"/>
<path fill="#30A446" opacity="1.000000" stroke="none" 
	d="
M1141.855103,954.012634 
	C1141.781860,980.799072 1155.168457,1000.458496 1175.070923,1016.639038 
	C1202.315308,1038.788574 1234.252686,1051.028198 1267.656738,1059.918457 
	C1284.113037,1064.298218 1300.725830,1068.188110 1317.419556,1071.544922 
	C1329.647583,1074.003662 1342.104492,1075.374878 1354.492798,1076.972412 
	C1368.510254,1078.780029 1382.560059,1080.343628 1396.606445,1081.918457 
	C1401.193848,1082.432861 1405.808838,1082.796021 1410.421021,1082.978027 
	C1428.971436,1083.710571 1447.527832,1084.290771 1466.077515,1085.039307 
	C1474.849609,1085.393311 1483.611450,1086.000122 1493.788330,1086.571533 
	C1489.844971,1090.204468 1486.732788,1093.624268 1483.092651,1096.334961 
	C1460.320679,1113.293335 1437.473755,1130.185547 1411.336670,1141.815918 
	C1389.548218,1151.511353 1367.073120,1159.049683 1343.705444,1164.158203 
	C1326.006714,1168.027466 1308.242798,1171.153320 1290.179565,1171.908691 
	C1271.261108,1172.699585 1252.221436,1173.949219 1233.387939,1172.696411 
	C1197.248169,1170.292236 1161.723633,1163.561035 1126.871704,1153.454590 
	C1097.789795,1145.021362 1069.322021,1134.808960 1042.032227,1121.803101 
	C1014.053345,1108.468750 986.774414,1093.668945 959.139404,1079.608154 
	C943.874878,1071.841309 928.681885,1063.900757 913.150330,1056.699097 
	C884.223999,1043.286255 854.631653,1031.512817 823.865845,1022.930176 
	C808.699158,1018.699097 793.572327,1014.228760 778.221863,1010.782104 
	C765.113037,1007.838806 751.724854,1006.112122 738.434631,1004.009583 
	C713.152344,1000.009766 687.648499,999.124329 662.158447,1000.189697 
	C646.734497,1000.834473 631.298279,1002.733521 616.030090,1005.112244 
	C601.137573,1007.432373 586.248413,1010.336609 571.721497,1014.312988 
	C548.086304,1020.782532 525.408386,1030.031860 503.810333,1041.658569 
	C485.988892,1051.252319 468.818115,1061.918213 453.383972,1075.158325 
	C450.664093,1077.491455 447.791138,1079.646240 445.082794,1081.808472 
	C445.082794,1075.487915 444.724823,1069.337891 445.168396,1063.246460 
	C445.801849,1054.546753 446.790131,1045.856079 448.043854,1037.222168 
	C450.187103,1022.461914 452.134796,1007.642151 455.132172,993.046082 
	C458.059509,978.791077 462.197266,964.784729 466.231384,950.564880 
	C468.573883,955.120178 472.537170,955.034729 476.679382,955.032349 
	C555.004639,954.987915 633.329956,954.965820 711.655273,955.007324 
	C853.304016,955.082397 994.952820,955.207153 1136.601562,955.250061 
	C1138.352661,955.250549 1140.103882,954.442993 1141.855103,954.012634 
z"/>
<path fill="#33AA48" opacity="1.000000" stroke="none" 
	d="
M1141.913330,953.638916 
	C1140.103882,954.442993 1138.352661,955.250549 1136.601562,955.250061 
	C994.952820,955.207153 853.304016,955.082397 711.655273,955.007324 
	C633.329956,954.965820 555.004639,954.987915 476.679382,955.032349 
	C472.537170,955.034729 468.573883,955.120178 466.412903,950.228027 
	C468.357605,942.535217 469.957428,934.836731 472.850769,927.659668 
	C481.422424,906.397034 489.903320,885.059448 499.598724,864.301819 
	C506.031097,850.530151 514.461426,837.688782 522.058105,824.465881 
	C523.684082,821.635681 525.571594,818.955688 527.825317,816.374207 
	C531.191406,817.360901 534.068787,818.886169 536.950378,818.894226 
	C592.672180,819.049133 648.394531,819.026550 704.116760,819.040466 
	C701.080017,823.524231 698.053040,828.014587 694.998535,832.486267 
	C694.378235,833.394409 693.654358,834.231873 692.978271,835.101929 
	C693.375916,835.472534 693.773621,835.843140 694.171326,836.213745 
	C701.232361,828.538147 708.293335,820.862549 715.674683,813.448853 
	C715.890564,819.273254 719.832520,818.999146 723.603394,818.998901 
	C760.410156,818.996582 797.216919,818.997925 834.023682,819.000549 
	C846.348083,819.001465 858.672485,819.020752 870.996887,819.005920 
	C874.174072,819.002075 877.070557,819.382385 878.041870,823.114868 
	C870.658325,829.947266 863.127502,836.629517 855.949585,843.671448 
	C852.003418,847.543030 848.651123,852.019958 844.639099,856.619507 
	C843.426453,857.975952 842.605774,858.936707 841.785095,859.897522 
	C842.199951,860.276062 842.614807,860.654663 843.029724,861.033203 
	C843.907349,859.923035 844.785034,858.812805 845.662720,857.702515 
	C858.055481,847.683716 870.392700,837.594910 882.876282,827.690491 
	C886.451660,824.853760 890.450439,822.550720 894.636475,820.342407 
	C895.363953,826.352295 899.600891,825.970947 903.437195,825.974854 
	C936.927429,826.008606 970.417664,825.996460 1003.907898,826.000610 
	C1016.404236,826.002197 1028.900513,826.001038 1041.396851,826.023865 
	C1044.303711,826.029175 1047.229614,826.094116 1048.008179,829.834595 
	C1036.893311,836.468140 1025.462524,842.633728 1014.752869,849.867188 
	C1004.105896,857.058289 993.837097,864.914001 984.037598,873.226990 
	C973.376831,882.270691 963.444824,892.173767 953.218994,901.727783 
	C953.056335,901.879700 953.198669,902.358032 953.198669,904.079895 
	C998.628906,867.270874 1049.383423,842.746887 1104.973999,827.971191 
	C1160.954102,813.091980 1217.850830,809.355225 1275.265259,815.150085 
	C1332.184692,820.894836 1386.426636,836.193420 1436.948608,863.200684 
	C1436.784302,863.743896 1436.619995,864.287109 1436.455688,864.830322 
	C1424.477539,861.566956 1412.634277,857.627808 1400.488525,855.204285 
	C1383.763794,851.867004 1366.880615,849.041138 1349.935425,847.173218 
	C1333.372070,845.347229 1316.651245,844.328613 1299.989258,844.189453 
	C1283.027100,844.047791 1266.291870,847.069519 1249.914917,851.596436 
	C1233.384766,856.165588 1217.906006,863.002930 1202.873291,871.437622 
	C1182.497192,882.870300 1165.889404,898.046265 1153.142212,917.306152 
	C1147.370239,926.027039 1143.577637,935.997131 1142.076904,947.028809 
	C1138.415283,948.886841 1139.594727,950.001709 1141.839355,951.005127 
	C1141.883423,951.758484 1141.927490,952.511902 1141.913330,953.638916 
M949.170959,906.579346 
	C950.271118,906.110107 951.371277,905.640869 952.471497,905.171631 
	C952.215149,904.744751 951.958862,904.317932 951.702576,903.891113 
	C950.856934,904.521912 950.011230,905.152771 949.170959,906.579346 
M947.758484,908.149475 
	C948.047363,908.302734 948.336243,908.456055 948.625122,908.609375 
	C948.688293,908.348999 948.751465,908.088562 948.814636,907.828125 
	C948.591003,907.778503 948.367371,907.728882 947.758484,908.149475 
z"/>
<path fill="#38B34A" opacity="1.000000" stroke="none" 
	d="
M963.064941,645.944336 
	C957.324097,647.634460 951.583191,649.324646 945.135681,650.918762 
	C942.661743,651.541382 940.894531,652.260132 939.127319,652.978882 
	C935.664246,654.208923 932.201111,655.438965 928.403687,656.416565 
	C928.437256,650.220459 923.858032,652.082581 921.057678,652.078491 
	C853.164429,651.979065 785.270996,652.001038 717.377563,651.997070 
	C715.214661,651.996948 713.051636,651.960327 710.888794,651.930359 
	C707.100525,651.877869 704.918884,650.177185 705.003357,646.166504 
	C740.238647,625.308899 777.602478,609.166077 816.857178,597.818176 
	C838.032410,591.696716 859.735718,587.147888 881.436707,583.180176 
	C898.377197,580.082764 915.635498,578.139343 932.835693,577.194275 
	C954.560120,576.000549 976.429932,575.193054 998.123779,576.347717 
	C1019.216370,577.470398 1040.201660,581.027283 1061.169312,583.975159 
	C1090.606079,588.113708 1118.973755,596.632812 1146.873657,606.573792 
	C1161.195801,611.676819 1175.318237,617.551331 1189.011475,624.154541 
	C1206.300049,632.491455 1223.194336,641.682800 1239.989380,650.991333 
	C1248.438721,655.674255 1256.308960,661.406677 1264.391846,666.739136 
	C1265.189453,667.265381 1265.642212,668.314575 1266.821533,669.866638 
	C1250.101929,663.937012 1234.791748,657.634155 1218.971924,653.115479 
	C1198.700684,647.325439 1178.163208,642.220642 1157.466553,638.247681 
	C1142.180298,635.313293 1126.491333,634.025085 1110.917603,633.157104 
	C1092.428955,632.126648 1073.816040,631.301025 1055.359009,632.289917 
	C1036.558716,633.297302 1017.846924,636.368347 999.165405,639.021973 
	C988.660767,640.514099 978.295837,642.989136 967.189636,644.941956 
	C965.362549,645.223145 964.213745,645.583740 963.064941,645.944336 
z"/>
<path fill="#35AD48" opacity="1.000000" stroke="none" 
	d="
M1048.317627,829.796814 
	C1047.229614,826.094116 1044.303711,826.029175 1041.396851,826.023865 
	C1028.900513,826.001038 1016.404236,826.002197 1003.907898,826.000610 
	C970.417664,825.996460 936.927429,826.008606 903.437195,825.974854 
	C899.600891,825.970947 895.363953,826.352295 894.989014,820.282959 
	C903.581055,814.602356 912.094360,809.134094 920.851196,804.088379 
	C930.741272,798.389587 940.624084,792.597778 950.908752,787.680176 
	C975.953369,775.705200 1001.692078,765.408203 1028.782593,758.995117 
	C1048.219971,754.393860 1067.707397,749.908020 1087.335449,746.244446 
	C1098.142700,744.227356 1109.267578,743.655334 1120.283081,743.071228 
	C1138.458496,742.107605 1156.674194,740.907654 1174.848877,741.217896 
	C1191.793091,741.507141 1208.751709,743.212219 1225.622559,745.043823 
	C1257.165649,748.468323 1288.072266,755.213257 1318.030273,765.663208 
	C1335.334961,771.699341 1352.349365,778.644043 1369.214233,785.836548 
	C1380.074097,790.467957 1390.446411,796.250854 1400.983154,801.623474 
	C1402.588989,802.442261 1403.901855,803.835693 1404.738525,805.910583 
	C1395.261597,802.979309 1385.915039,799.492249 1376.280273,797.234680 
	C1357.299805,792.787231 1338.254517,788.468506 1319.052490,785.164001 
	C1305.619995,782.852417 1291.907715,781.844482 1278.274292,781.104492 
	C1262.531006,780.249939 1246.705688,779.572266 1230.974365,780.225281 
	C1216.567139,780.823486 1202.127563,782.654175 1187.900757,785.098206 
	C1167.759521,788.558350 1147.730347,792.771118 1127.798218,797.299622 
	C1119.723511,799.134216 1111.916992,802.364929 1104.187378,805.457642 
	C1089.837646,811.199036 1075.635376,817.309448 1061.366943,823.254517 
	C1059.861938,823.881531 1058.324219,824.429932 1056.160156,824.989624 
	C1054.048950,825.992310 1052.579346,827.020325 1051.109619,828.048340 
	C1050.282227,828.618530 1049.454712,829.188782 1048.317627,829.796814 
z"/>
<path fill="#37B049" opacity="1.000000" stroke="none" 
	d="
M819.952271,732.892090 
	C823.043152,731.270020 826.134094,729.647949 829.842773,728.038818 
	C831.291443,727.329956 832.122375,726.608215 832.953308,725.886475 
	C842.798401,720.985046 852.560425,715.907532 862.505127,711.217346 
	C886.130737,700.074829 910.731262,691.537964 936.005859,685.084351 
	C953.135193,680.710449 970.395752,676.747986 987.751465,673.399170 
	C999.184814,671.193176 1010.856506,669.886963 1022.483887,669.096191 
	C1043.088013,667.694946 1063.744263,666.142944 1084.370117,666.253052 
	C1102.472534,666.349731 1120.654175,667.910522 1138.635254,670.152100 
	C1158.620483,672.643555 1178.542480,676.040344 1198.266602,680.129761 
	C1222.621216,685.179260 1246.348145,692.703430 1269.327148,702.254944 
	C1285.636230,709.033936 1301.766479,716.302002 1317.651855,724.020203 
	C1327.938599,729.018188 1337.654419,735.196289 1347.579102,740.926575 
	C1348.484253,741.449158 1349.047241,742.563843 1350.740845,744.533875 
	C1344.737061,742.693909 1340.162964,741.513672 1335.746216,739.902100 
	C1309.356934,730.272644 1282.375244,722.875854 1254.532104,719.041565 
	C1239.061646,716.911133 1223.506226,715.052429 1207.926636,714.150818 
	C1190.365112,713.134460 1172.719238,712.758667 1155.137207,713.196594 
	C1142.864136,713.502197 1130.649048,715.775513 1118.386230,716.939270 
	C1093.634277,719.288147 1069.577637,724.939941 1045.225830,731.672180 
	C1043.782471,731.926758 1042.889771,732.380005 1041.996948,732.833313 
	C1039.601562,733.559204 1037.206055,734.285095 1034.215576,734.785034 
	C1031.987915,733.966248 1030.355957,732.860535 1028.722290,732.857727 
	C1005.394104,732.817749 982.065369,732.883545 958.737305,733.009216 
	C913.925537,733.250732 869.114075,733.555420 824.302246,733.779663 
	C822.853760,733.786865 821.402344,733.201294 819.952271,732.892090 
z"/>
<path fill="#35AD49" opacity="1.000000" stroke="none" 
	d="
M704.394897,818.909302 
	C648.394531,819.026550 592.672180,819.049133 536.950378,818.894226 
	C534.068787,818.886169 531.191406,817.360901 528.133911,816.214600 
	C534.441101,806.289307 540.336426,796.219971 547.542480,787.197449 
	C560.150635,771.411011 573.504150,756.216431 586.673340,740.883789 
	C591.027466,735.814331 595.776001,731.083740 600.853516,726.278687 
	C605.055115,726.241699 608.747437,726.023071 612.439819,726.021667 
	C670.471130,726.000000 728.502441,725.977417 786.533508,726.093079 
	C789.394592,726.098755 792.253235,727.366638 795.112976,728.046875 
	C778.116455,743.156128 760.708008,757.834412 744.278564,773.536987 
	C734.476196,782.905579 726.202637,793.874878 717.258911,804.139526 
	C715.357178,806.322083 713.529419,808.569092 711.024902,810.946655 
	C707.355408,811.469849 705.676025,812.725037 707.112915,816.043884 
	C706.299622,816.955261 705.486328,817.866699 704.394897,818.909302 
z"/>
<path fill="#35AD49" opacity="1.000000" stroke="none" 
	d="
M819.598145,732.950073 
	C821.402344,733.201294 822.853760,733.786865 824.302246,733.779663 
	C869.114075,733.555420 913.925537,733.250732 958.737305,733.009216 
	C982.065369,732.883545 1005.394104,732.817749 1028.722290,732.857727 
	C1030.355957,732.860535 1031.987915,733.966248 1033.829102,734.821289 
	C1020.164551,740.430542 1005.859314,744.883057 992.518250,751.330811 
	C971.565613,761.457092 950.928650,772.353333 930.812805,784.049744 
	C919.056396,790.885559 908.509399,799.824890 897.539673,807.981140 
	C891.118896,812.755127 884.936829,817.850220 878.344604,822.957886 
	C877.070557,819.382385 874.174072,819.002075 870.996887,819.005920 
	C858.672485,819.020752 846.348083,819.001465 834.023682,819.000549 
	C797.216919,818.997925 760.410156,818.996582 723.603394,818.998901 
	C719.832520,818.999146 715.890564,819.273254 715.977173,813.296509 
	C720.490967,808.841125 725.105835,804.888550 729.531006,800.733826 
	C734.080139,796.462830 738.099243,791.562195 742.952698,787.692566 
	C758.098999,775.616577 773.284485,763.560242 788.941589,752.165100 
	C798.582947,745.148132 809.112976,739.352234 819.598145,732.950073 
z"/>
<path fill="#37B049" opacity="1.000000" stroke="none" 
	d="
M795.420105,727.899475 
	C792.253235,727.366638 789.394592,726.098755 786.533508,726.093079 
	C728.502441,725.977417 670.471130,726.000000 612.439819,726.021667 
	C608.747437,726.023071 605.055115,726.241699 601.160645,726.120605 
	C610.582153,717.143616 619.958313,708.111389 629.894836,699.744568 
	C641.185486,690.237427 652.700867,680.944641 664.638733,672.275024 
	C674.152588,665.365662 684.471863,659.569519 694.382751,653.200012 
	C697.777771,651.018066 701.018555,648.596008 704.666626,646.225098 
	C704.918884,650.177185 707.100525,651.877869 710.888794,651.930359 
	C713.051636,651.960327 715.214661,651.996948 717.377563,651.997070 
	C785.270996,652.001038 853.164429,651.979065 921.057678,652.078491 
	C923.858032,652.082581 928.437256,650.220459 928.037354,656.497192 
	C898.515869,667.284363 869.932922,679.819580 843.179871,696.061218 
	C827.772461,705.415039 813.192078,716.130737 798.234009,726.225464 
	C797.423950,726.772156 796.563965,727.244873 795.420105,727.899475 
z"/>
<path fill="#1F5F95" opacity="1.000000" stroke="none" 
	d="
M1437.337646,1334.928711 
	C1437.054565,1334.307617 1436.886230,1333.436768 1437.104858,1332.677490 
	C1438.700562,1327.139038 1436.382935,1323.584473 1431.174072,1321.117432 
	C1435.748535,1311.633423 1440.888428,1302.438599 1445.459595,1292.969238 
	C1457.981323,1267.030762 1467.950806,1240.123047 1475.003906,1212.181519 
	C1478.414917,1198.668945 1481.855347,1185.143555 1484.570923,1171.482544 
	C1486.361694,1162.473511 1486.866089,1153.210327 1487.982910,1144.065308 
	C1488.627319,1138.787231 1489.344604,1133.518188 1491.032715,1128.385986 
	C1491.051147,1164.356201 1484.807983,1199.469727 1475.944580,1234.168579 
	C1467.014648,1269.127808 1454.192627,1302.653931 1437.337646,1334.928711 
z"/>
<path fill="#33AA48" opacity="1.000000" stroke="none" 
	d="
M707.392456,815.874634 
	C705.676025,812.725037 707.355408,811.469849 710.747437,811.077026 
	C709.965759,812.599854 708.818848,814.152588 707.392456,815.874634 
z"/>
<path fill="#37B049" opacity="1.000000" stroke="none" 
	d="
M939.487793,652.985352 
	C940.894531,652.260132 942.661743,651.541382 944.739502,650.963806 
	C943.316040,651.733887 941.582214,652.362915 939.487793,652.985352 
z"/>
<path fill="#33AA48" opacity="1.000000" stroke="none" 
	d="
M1051.446167,828.017151 
	C1052.579346,827.020325 1054.048950,825.992310 1055.784058,825.034851 
	C1054.627319,826.065613 1053.204956,827.025818 1051.446167,828.017151 
z"/>
<path fill="#30A446" opacity="1.000000" stroke="none" 
	d="
M1141.903809,950.627747 
	C1139.594727,950.001709 1138.415283,948.886841 1141.738037,947.268250 
	C1142.003418,948.220764 1141.985962,949.235535 1141.903809,950.627747 
z"/>
<path fill="#35AD49" opacity="1.000000" stroke="none" 
	d="
M832.637451,725.940186 
	C832.122375,726.608215 831.291443,727.329956 830.204956,727.973206 
	C830.740173,727.261108 831.530945,726.627502 832.637451,725.940186 
z"/>
<path fill="#35AD49" opacity="1.000000" stroke="none" 
	d="
M1042.325684,732.885132 
	C1042.889771,732.380005 1043.782471,731.926758 1044.837891,731.653076 
	C1044.218506,732.200867 1043.436401,732.568970 1042.325684,732.885132 
z"/>
<path fill="#37B049" opacity="1.000000" stroke="none" 
	d="
M963.423950,645.966248 
	C964.213745,645.583740 965.362549,645.223145 966.780518,644.983643 
	C965.960815,645.399231 964.871887,645.693726 963.423950,645.966248 
z"/>
<path fill="#1F5F95" opacity="1.000000" stroke="none" 
	d="
M1427.725342,1325.967163 
	C1427.777466,1326.107422 1427.599243,1326.352905 1427.279785,1326.776611 
	C1427.258789,1326.661865 1427.377808,1326.367676 1427.725342,1325.967163 
z"/>
<path fill="#1F5F95" opacity="1.000000" stroke="none" 
	d="
M1426.740479,1327.976074 
	C1426.788452,1328.111450 1426.611328,1328.355469 1426.294678,1328.777344 
	C1426.076050,1328.583008 1426.196167,1328.292725 1426.740479,1327.976074 
z"/>
<path fill="#000000" opacity="1.000000" stroke="none" 
	d="
M632.486572,1430.466675 
	C631.788696,1430.292480 631.287292,1429.932739 630.145996,1429.114014 
	C631.498840,1429.268555 632.144287,1429.342285 632.931641,1429.661987 
	C632.943298,1430.032349 632.813171,1430.156860 632.486572,1430.466675 
z"/>
<path fill="#000000" opacity="1.000000" stroke="none" 
	d="
M845.477905,857.507812 
	C844.785034,858.812805 843.907349,859.923035 843.029724,861.033203 
	C842.614807,860.654663 842.199951,860.276062 841.785095,859.897522 
	C842.605774,858.936707 843.426453,857.975952 844.585266,856.969482 
	C845.046570,857.053528 845.169861,857.183289 845.477905,857.507812 
z"/>
<path fill="#000000" opacity="1.000000" stroke="none" 
	d="
M949.168274,906.181519 
	C950.011230,905.152771 950.856934,904.521912 951.702576,903.891113 
	C951.958862,904.317932 952.215149,904.744751 952.471497,905.171631 
	C951.371277,905.640869 950.271118,906.110107 949.168274,906.181519 
z"/>
<path fill="#000000" opacity="1.000000" stroke="none" 
	d="
M947.951050,907.914307 
	C948.367371,907.728882 948.591003,907.778503 948.814636,907.828125 
	C948.751465,908.088562 948.688293,908.348999 948.625122,908.609375 
	C948.336243,908.456055 948.047363,908.302734 947.951050,907.914307 
z"/>
</svg>