<svg version="1.1" id="Layer_1" xmlns="http://www.w3.org/2000/svg" xmlns:xlink="http://www.w3.org/1999/xlink" x="0px" y="0px"
	 width="100%" viewBox="0 0 2000 2000" enable-background="new 0 0 2000 2000" xml:space="preserve">
<path fill="#000000" opacity="1.000000" stroke="none" 
	d="
M1266.000000,2001.000000 
	C844.000000,2001.000000 422.500000,2001.000000 1.000000,2001.000000 
	C1.000000,1334.333374 1.000000,667.666687 1.000000,1.000000 
	C667.666687,1.000000 1334.333374,1.000000 2001.000000,1.000000 
	C2001.000000,667.666687 2001.000000,1334.333374 2001.000000,2001.000000 
	C1756.166626,2001.000000 1511.333374,2001.000000 1266.000000,2001.000000 
M1040.756348,690.980652 
	C1042.859375,689.779602 1044.987427,688.620117 1047.061523,687.370972 
	C1068.253906,674.607422 1090.842529,665.186279 1114.421021,657.675110 
	C1144.809082,647.994812 1176.025635,644.275330 1207.622681,643.174866 
	C1219.463013,642.762451 1231.419678,643.876770 1243.237305,645.115234 
	C1255.954468,646.448059 1268.704834,648.117432 1281.194214,650.791565 
	C1294.121582,653.559509 1306.744507,657.741760 1319.525513,661.213684 
	C1321.089233,661.638489 1322.807129,661.496399 1324.453491,661.617004 
	C1324.497803,661.163696 1324.542114,660.710388 1324.586426,660.257019 
	C1315.196533,655.552185 1305.979980,650.451843 1296.372437,646.243896 
	C1284.670898,641.118530 1272.901978,635.855896 1260.688721,632.260559 
	C1243.926147,627.325989 1226.837280,623.279297 1209.666870,620.017578 
	C1194.693115,617.173157 1179.453369,614.793152 1164.258911,614.257019 
	C1138.486816,613.347778 1112.668701,613.511475 1087.035645,617.871216 
	C1067.131470,621.256470 1047.440430,625.320007 1028.194092,631.453186 
	C1006.520569,638.359863 985.550476,647.032166 966.031799,658.673218 
	C952.556824,666.709778 939.913208,676.140320 926.283813,685.236816 
	C921.170898,689.422913 916.057983,693.609009 910.945007,697.795044 
	C910.731812,697.615479 910.518555,697.435852 910.305359,697.256226 
	C911.576294,695.516479 912.847168,693.776794 914.708008,691.741333 
	C919.430603,687.366272 923.991699,682.799194 928.911621,678.658630 
	C937.454346,671.468994 945.778748,663.892578 954.992126,657.656494 
	C969.323914,647.956177 984.323242,639.242249 999.765198,629.996277 
	C1006.596313,626.782898 1013.262756,623.142761 1020.287903,620.432373 
	C1046.089355,610.477844 1072.184814,601.349426 1099.824341,597.980652 
	C1116.302368,595.972351 1132.837524,594.256958 1149.396606,593.159607 
	C1157.949341,592.592896 1166.635864,593.355408 1175.216675,594.065613 
	C1187.841919,595.110413 1200.467773,596.341431 1213.019531,598.038208 
	C1235.355835,601.057556 1256.835327,607.542664 1278.053345,614.963257 
	C1279.506592,615.471436 1281.117188,615.529236 1282.654663,615.796570 
	C1282.791382,615.337830 1282.928101,614.879028 1283.064819,614.420288 
	C1277.442505,611.158447 1271.907349,607.733948 1266.182739,604.662598 
	C1239.599121,590.399963 1211.834595,579.075500 1182.647827,571.304443 
	C1155.585693,564.098999 1128.042969,559.586060 1100.124146,558.197632 
	C1084.739136,557.432434 1069.207153,558.009094 1053.828979,559.154785 
	C1037.640869,560.360779 1021.472534,562.449158 1005.445129,565.067261 
	C970.903564,570.709656 938.204651,582.265991 906.871033,597.682861 
	C889.805359,606.079407 873.443542,615.739441 857.436707,627.100830 
	C856.944336,627.695862 856.452026,628.290955 855.314270,629.000366 
	C854.505371,629.653503 853.696533,630.306641 852.188721,631.006592 
	C835.784424,645.239136 819.380127,659.471680 802.996399,673.686401 
	C803.332947,673.011169 803.621216,672.087158 804.177490,671.371338 
	C808.815979,665.402710 813.228027,659.226929 818.243103,653.589417 
	C825.294739,645.662781 832.497864,637.819336 840.199341,630.535828 
	C849.165283,622.056458 858.739197,614.220032 868.671753,605.798401 
	C876.342163,600.475098 883.940857,595.044800 891.697571,589.850342 
	C909.381470,578.007874 928.160217,568.183594 947.783630,559.977844 
	C969.134705,551.049561 991.035767,543.761536 1013.876892,539.858643 
	C1030.010864,537.101807 1046.243042,534.065552 1062.534058,533.277466 
	C1088.640015,532.014587 1114.736084,533.090942 1140.649780,537.826599 
	C1165.436035,542.356201 1189.605469,548.645569 1212.856689,558.386230 
	C1215.339355,559.426208 1217.954956,560.149048 1220.508911,561.019043 
	C1220.773438,560.441650 1221.038086,559.864197 1221.302734,559.286804 
	C1218.195679,557.337463 1215.035889,555.466980 1211.989868,553.426453 
	C1183.683472,534.463623 1153.149048,519.959045 1120.803589,509.587616 
	C1103.536011,504.050903 1085.760132,499.848846 1067.964844,496.288727 
	C1054.146240,493.524200 1039.969482,491.573792 1025.903320,491.225739 
	C996.775391,490.504974 967.518860,489.679840 938.661499,495.083618 
	C922.607788,498.089813 906.470642,501.132904 890.828125,505.718567 
	C874.703674,510.445496 858.832825,516.370117 843.407471,523.054810 
	C828.347900,529.580872 813.527283,536.953613 799.451660,545.375183 
	C784.275085,554.455505 769.776001,564.769653 755.575439,575.343384 
	C746.481018,582.115051 738.462158,590.331116 729.353699,598.190186 
	C700.002014,626.383362 674.851440,657.799316 655.302185,694.338867 
	C647.779785,711.101746 639.845947,727.696289 632.890198,744.691101 
	C628.757080,754.789490 626.164124,765.518311 622.275085,776.424316 
	C622.133545,777.409424 622.052917,778.407837 621.841248,779.377625 
	C619.224731,791.369141 616.278564,803.299133 614.049377,815.361694 
	C611.991455,826.497253 610.401489,837.741943 609.184387,849.001160 
	C608.522705,855.122620 609.066406,861.374390 609.066406,867.596252 
	C609.068176,867.595825 609.608032,867.603516 609.958496,867.349731 
	C612.755310,865.324463 615.592407,863.343933 618.275940,861.174988 
	C638.956177,844.460938 662.221619,832.530212 687.106140,823.445740 
	C720.013062,811.432556 754.055176,806.700745 788.921143,807.041443 
	C793.862976,807.089783 798.814514,807.511963 803.736084,808.011597 
	C816.502136,809.307190 829.382751,810.021118 841.984863,812.271118 
	C868.806885,817.060181 895.068542,824.146606 920.533081,833.996399 
	C926.965637,836.484436 933.484009,838.750610 940.313721,841.672363 
	C941.505066,842.117981 942.696350,842.563599 944.315674,843.573608 
	C945.865845,844.085754 947.416016,844.597900 949.364868,845.691406 
	C962.660645,852.160767 976.048157,858.449402 989.230713,865.141785 
	C1009.029297,875.192810 1028.489502,885.929504 1048.470337,895.595886 
	C1061.325073,901.814697 1074.734619,906.956116 1088.109375,912.015320 
	C1111.987793,921.047668 1136.602417,927.571106 1161.790771,931.709595 
	C1173.147949,933.575684 1184.621338,935.505798 1196.083496,935.802795 
	C1221.063721,936.450073 1245.996460,936.307678 1270.769653,931.226196 
	C1291.138306,927.048096 1310.827515,921.212219 1329.682495,912.614746 
	C1347.282104,904.589661 1363.262939,893.864868 1378.466553,881.975464 
	C1382.465332,878.848328 1386.268433,875.471008 1391.104248,871.418457 
	C1383.755493,870.863892 1378.028198,870.300293 1372.286987,870.028503 
	C1363.015259,869.589539 1353.711426,869.648865 1344.462280,868.950867 
	C1325.221558,867.498718 1305.922729,866.338867 1286.807495,863.837952 
	C1268.614380,861.457642 1250.436035,858.309204 1232.603271,854.030884 
	C1217.488647,850.404907 1202.876953,844.682800 1187.649902,839.309875 
	C1181.913574,836.467468 1176.095337,833.777588 1170.457642,830.751587 
	C1157.969360,824.048645 1146.953369,815.422485 1138.592407,803.913818 
	C1131.317261,793.899597 1127.783569,782.545471 1128.950562,769.171875 
	C1130.787476,763.103210 1131.986450,756.745239 1134.582764,751.020996 
	C1141.953735,734.769592 1154.745850,723.365417 1169.534058,713.990112 
	C1191.106323,700.313782 1214.919434,692.648926 1240.162476,691.360413 
	C1256.869507,690.507568 1273.771484,692.693909 1290.541138,694.069946 
	C1307.588867,695.468933 1324.160889,699.444824 1340.409302,704.799377 
	C1342.678223,705.546936 1345.198120,705.532654 1347.601807,705.871094 
	C1347.673096,705.361328 1347.744263,704.851624 1347.815552,704.341919 
	C1291.354126,675.644653 1231.417725,664.064087 1168.151733,667.919861 
	C1105.113770,671.761658 1047.451050,690.793335 995.652893,727.543335 
	C1001.077698,721.486328 1006.784790,716.051453 1012.888672,711.106384 
	C1019.752380,705.545715 1026.973999,700.426880 1034.683594,694.998779 
	C1035.492065,694.348022 1036.300415,693.697266 1037.735596,692.989380 
	C1038.506836,692.361389 1039.278076,691.733398 1040.756348,690.980652 
M812.074158,1072.055298 
	C798.473694,1071.794556 784.955078,1070.714233 771.591125,1068.052734 
	C758.089844,1065.363647 744.427979,1063.296997 731.126770,1059.840576 
	C718.206970,1056.483521 705.655640,1051.708496 692.942444,1047.556274 
	C693.093384,1047.057129 693.244324,1046.557983 693.395264,1046.058838 
	C694.214172,1046.058838 695.047241,1045.959106 695.849792,1046.073730 
	C714.213440,1048.695435 732.502441,1052.226196 750.956360,1053.712646 
	C766.895203,1054.996704 782.997131,1054.426514 798.900696,1051.106445 
	C822.487854,1046.182251 843.996582,1037.455078 860.366333,1019.021362 
	C867.120667,1011.415344 872.006287,1002.696106 871.949585,991.079773 
	C873.654846,976.049561 866.588440,964.268921 856.648926,954.496460 
	C846.938782,944.949463 835.474670,937.596130 822.870544,931.780823 
	C793.446899,918.205200 762.365723,910.954041 730.615112,906.062927 
	C716.641602,903.910278 702.565491,902.291565 688.483215,901.010193 
	C670.394653,899.364197 652.263977,898.109070 634.129395,897.072144 
	C625.540955,896.581055 616.901184,896.987793 607.804199,896.987793 
	C608.285034,899.651184 608.735779,901.547852 608.957825,903.470886 
	C610.993835,921.111267 612.401428,938.850403 615.204895,956.366699 
	C617.080994,968.088684 620.923584,979.495972 623.965149,991.847778 
	C624.081909,992.827576 624.044373,993.856384 624.338013,994.779968 
	C632.694458,1021.062683 643.430969,1046.350342 656.345703,1070.707397 
	C658.250244,1074.299316 660.697632,1077.603394 663.012390,1081.746704 
	C673.840759,1097.185059 683.967651,1113.182983 695.706787,1127.894653 
	C706.175781,1141.014526 718.426941,1152.712158 730.201904,1165.637695 
	C735.052185,1170.166260 739.668152,1174.981445 744.794678,1179.172119 
	C763.289551,1194.290771 782.439453,1208.412231 803.297607,1220.288330 
	C825.037659,1232.666748 847.486694,1243.366821 871.106934,1251.404297 
	C895.919617,1259.847778 921.256165,1266.503540 947.468994,1268.997803 
	C963.563965,1270.529419 979.686707,1272.543457 995.815247,1272.726562 
	C1011.307617,1272.902466 1026.905762,1271.680054 1042.307129,1269.824341 
	C1059.267822,1267.780762 1076.357910,1265.468506 1092.842896,1261.168823 
	C1112.224731,1256.113525 1131.512085,1249.962524 1149.927856,1242.138794 
	C1169.154663,1233.970459 1187.532959,1223.674438 1205.848511,1213.526123 
	C1226.009888,1202.354980 1243.775879,1187.685181 1260.892700,1172.391235 
	C1271.681274,1162.751831 1281.648071,1152.165527 1291.649902,1141.685669 
	C1295.908813,1137.223267 1299.315063,1131.947266 1303.695312,1126.722900 
	C1304.291992,1126.142822 1304.967651,1125.624023 1305.473999,1124.973633 
	C1320.769775,1105.327881 1334.711914,1084.803955 1346.140015,1062.627563 
	C1357.716553,1040.163330 1367.597778,1017.012939 1374.137695,992.563660 
	C1377.441528,980.212097 1380.519531,967.772156 1382.981323,955.231140 
	C1385.447754,942.666321 1387.248779,929.955139 1388.872803,917.248230 
	C1389.540771,912.021240 1388.983398,906.637634 1388.983398,900.082703 
	C1388.020020,901.990662 1387.192017,902.961731 1387.046021,904.026306 
	C1385.953979,911.992798 1384.995117,919.977600 1383.997559,927.957031 
	C1381.686768,946.439636 1377.275146,964.445984 1371.411377,982.090271 
	C1362.921509,1007.636841 1352.117554,1032.157715 1337.942993,1055.095581 
	C1325.790527,1074.760742 1312.095947,1093.289551 1296.308350,1110.220337 
	C1289.526855,1117.492798 1282.694824,1124.718262 1275.272339,1132.247681 
	C1274.300903,1132.854858 1273.186646,1133.313721 1272.379272,1134.091187 
	C1256.622559,1149.264648 1239.315674,1162.548462 1220.576538,1173.665527 
	C1203.021362,1184.080200 1185.115112,1194.186890 1166.475830,1202.419678 
	C1141.501343,1213.450562 1115.488281,1222.122437 1088.424316,1226.610229 
	C1069.743530,1229.707886 1050.920166,1232.613037 1032.050415,1233.710938 
	C1014.078186,1234.756714 995.942261,1233.766113 977.918213,1232.869019 
	C965.940491,1232.273071 953.904968,1230.951172 942.121460,1228.745850 
	C919.956604,1224.597900 897.935669,1219.526245 876.860962,1211.320068 
	C862.603577,1205.768555 848.582764,1199.565063 834.676575,1193.173462 
	C826.862732,1189.581909 819.497131,1185.015137 811.929626,1180.887817 
	C823.592773,1183.513794 834.960571,1186.634155 846.359314,1189.637085 
	C866.830872,1195.030029 887.764404,1198.000122 908.815186,1198.785645 
	C934.305847,1199.736816 959.818420,1199.379761 985.184021,1195.165527 
	C1004.713318,1191.921143 1024.007202,1187.819702 1042.718628,1181.512085 
	C1066.161255,1173.609741 1088.846436,1163.849365 1110.101074,1150.989258 
	C1132.807495,1137.250854 1154.119263,1121.697632 1172.739014,1102.709717 
	C1182.595703,1092.658081 1192.548584,1082.618774 1201.489258,1071.775024 
	C1209.521606,1062.032593 1216.248535,1051.211304 1223.470947,1040.810059 
	C1223.865845,1040.241211 1223.521973,1039.159302 1223.521973,1037.510132 
	C1219.514038,1042.058228 1216.242554,1046.170654 1212.561401,1049.876099 
	C1199.274780,1063.250488 1186.705566,1077.522217 1172.237427,1089.486328 
	C1157.728149,1101.484497 1141.778564,1111.989380 1125.522461,1121.554810 
	C1110.354980,1130.479614 1094.235840,1137.966797 1078.027954,1144.899780 
	C1056.814575,1153.973633 1034.552246,1159.948730 1011.913757,1164.546021 
	C991.350220,1168.721924 970.649841,1171.739258 949.670166,1171.897705 
	C931.896484,1172.031860 914.109375,1171.522217 896.342896,1170.886353 
	C889.456421,1170.639771 882.567017,1169.516724 875.755310,1168.347778 
	C862.804688,1166.125366 849.908997,1163.582397 836.216064,1161.006470 
	C826.900940,1158.328613 817.428467,1156.095215 808.308472,1152.866089 
	C795.451599,1148.313965 782.797058,1143.167725 770.172546,1137.991333 
	C763.608032,1135.299561 757.293884,1131.997314 750.864929,1128.969971 
	C767.562073,1132.413818 783.979065,1136.404785 800.609985,1139.051270 
	C815.728821,1141.457153 831.053955,1143.289551 846.336426,1143.741333 
	C861.859680,1144.200195 877.500427,1143.280640 892.981628,1141.819336 
	C907.846558,1140.416382 922.755371,1138.358398 937.309570,1135.093628 
	C952.320496,1131.726074 966.947998,1126.625366 981.705383,1122.157959 
	C1003.585938,1115.534302 1023.414062,1104.552002 1042.751831,1092.698853 
	C1069.022949,1076.596069 1092.066406,1056.613892 1112.190186,1033.285400 
	C1115.042725,1029.978638 1117.584839,1026.404175 1120.270752,1022.953613 
	C1119.811523,1022.577576 1119.352417,1022.201538 1118.893311,1021.825562 
	C1117.617798,1023.021423 1116.377197,1024.257446 1115.061035,1025.406860 
	C1105.238403,1033.985107 1095.842407,1043.133057 1085.450073,1050.956787 
	C1073.772095,1059.748413 1061.229980,1067.399902 1048.992188,1075.438599 
	C1031.906860,1086.661499 1012.914429,1093.954712 993.847351,1100.712646 
	C975.459045,1107.230225 956.662476,1112.822998 937.186707,1115.341309 
	C921.187073,1117.409668 905.175781,1120.235229 889.109314,1120.718140 
	C870.257141,1121.284790 851.327698,1119.909790 832.455322,1118.925415 
	C822.592163,1118.411011 812.609192,1117.741577 802.977356,1115.724365 
	C778.347473,1110.565430 753.980225,1104.261841 730.590820,1094.748047 
	C724.677795,1092.342896 718.942688,1089.500488 711.901245,1086.302734 
	C713.906128,1086.152222 714.434509,1085.974365 714.877502,1086.099243 
	C732.653320,1091.112549 750.717224,1094.392456 769.128174,1096.125610 
	C787.808899,1097.884033 806.456055,1099.153076 825.162048,1097.006470 
	C841.679565,1095.111084 858.293701,1093.683472 874.638000,1090.773560 
	C886.975830,1088.577026 898.955017,1084.366455 911.748718,1080.999634 
	C912.512695,1080.702026 913.276672,1080.404419 914.792847,1079.983032 
	C917.187500,1079.264404 919.582153,1078.545776 922.678101,1077.687378 
	C923.707886,1077.165649 924.696960,1076.532593 925.773499,1076.138794 
	C944.878113,1069.151733 962.468079,1059.239014 979.845947,1048.787842 
	C1000.660767,1036.269775 1017.593567,1019.360352 1034.307007,1002.138184 
	C1035.804932,1000.594666 1036.848511,998.610352 1038.103149,996.830750 
	C1036.872925,996.340698 1036.242676,996.416443 1035.822021,996.753784 
	C1030.434082,1001.072205 1025.018311,1005.358765 1019.721069,1009.786621 
	C1000.052856,1026.226929 977.655945,1038.250488 954.090332,1047.589478 
	C936.168396,1054.692017 917.218323,1059.251343 898.619507,1064.570923 
	C890.644653,1066.851685 882.471680,1068.739624 874.258850,1069.805664 
	C865.805115,1070.903076 857.196045,1070.863525 848.649658,1071.174194 
	C837.437683,1071.582031 826.220459,1071.845703 814.338806,1072.057617 
	C813.891113,1072.095581 813.443359,1072.133423 812.074158,1072.055298 
M998.568909,1549.041626 
	C992.059082,1558.109009 984.877075,1566.776733 979.194763,1576.336060 
	C970.340881,1591.230713 963.945251,1607.229614 964.050781,1624.986328 
	C964.161011,1643.534058 975.212219,1657.584961 991.673950,1663.732300 
	C1012.875916,1671.649902 1034.619507,1671.442871 1056.048584,1664.788940 
	C1071.584229,1659.964966 1084.717651,1651.049683 1094.695557,1637.882935 
	C1096.754395,1635.166382 1099.141846,1632.698730 1101.997070,1629.401245 
	C1101.997070,1646.547119 1102.059814,1662.536621 1101.947021,1678.524780 
	C1101.922852,1681.957397 1101.473389,1685.422974 1100.863647,1688.809326 
	C1097.234619,1708.968140 1086.465210,1724.013916 1068.543335,1734.047974 
	C1058.625244,1739.600586 1047.794067,1741.896973 1036.752319,1742.848755 
	C1027.541870,1743.643066 1018.474915,1742.155029 1010.492371,1736.739624 
	C1004.826843,1732.896118 1001.739014,1727.169922 998.979309,1721.220703 
	C993.514160,1709.439087 978.139465,1705.887451 970.127502,1714.616211 
	C962.168884,1723.286621 962.617188,1739.478516 970.394104,1749.045532 
	C979.109131,1759.766846 990.775269,1764.837891 1003.750488,1766.824829 
	C1019.323853,1769.209473 1035.021362,1768.149292 1050.346069,1764.609497 
	C1066.935791,1760.777832 1082.275391,1753.428101 1095.818115,1743.347656 
	C1112.415771,1730.993408 1126.007690,1715.657349 1133.499390,1695.882080 
	C1136.904541,1686.893677 1139.162842,1677.575684 1137.978394,1667.784180 
	C1137.643677,1665.017090 1137.037598,1662.249023 1137.033081,1659.480591 
	C1136.973145,1622.328125 1137.104370,1585.174927 1136.847656,1548.024170 
	C1136.819824,1544.003418 1135.296509,1539.659546 1133.364746,1536.056274 
	C1129.543823,1528.929077 1120.092773,1528.934814 1111.990723,1530.661133 
	C1103.959229,1532.372681 1101.017090,1536.952148 1101.009155,1545.173218 
	C1101.003174,1551.338135 1101.265503,1557.515747 1100.956665,1563.664917 
	C1100.511108,1572.538208 1100.457520,1581.543579 1098.804077,1590.219360 
	C1095.701050,1606.499512 1087.672241,1620.266846 1075.174316,1631.409180 
	C1064.890747,1640.577515 1052.989502,1645.989136 1039.343384,1646.901245 
	C1027.248779,1647.709717 1015.550476,1646.151001 1007.784180,1635.178589 
	C1001.488892,1626.284424 1001.699280,1615.728149 1003.424438,1605.954590 
	C1005.961731,1591.579590 1012.026306,1578.181152 1020.445618,1566.127930 
	C1025.992065,1558.187500 1032.227173,1550.731689 1037.978882,1542.929688 
	C1041.279175,1538.453003 1040.113647,1533.100464 1035.890747,1529.488037 
	C1031.231812,1525.502197 1021.150635,1526.302490 1017.167725,1530.345703 
	C1011.164673,1536.440186 1005.046326,1542.421143 998.568909,1549.041626 
M688.994385,1512.500000 
	C688.993652,1557.995117 688.891235,1603.490845 689.173340,1648.984253 
	C689.197571,1652.885010 690.926819,1657.428589 693.335632,1660.530884 
	C699.040039,1667.877319 707.388794,1666.774780 715.237854,1665.207153 
	C723.184387,1663.620239 725.994873,1659.709839 725.996704,1651.794067 
	C726.002869,1625.630371 725.999146,1599.466675 725.999268,1573.302979 
	C725.999268,1571.609131 725.999268,1569.915283 725.999268,1568.221436 
	C726.469360,1568.175171 726.939392,1568.128906 727.409485,1568.082642 
	C727.946655,1569.692871 728.536743,1571.287598 729.013184,1572.915649 
	C736.047974,1596.957886 748.471436,1617.971558 766.216858,1635.458740 
	C779.013428,1648.068970 793.996094,1657.794922 811.765320,1662.356323 
	C821.460327,1664.845093 831.205750,1667.635498 841.299927,1664.935059 
	C850.490295,1662.476318 852.890442,1659.280640 853.886475,1651.392700 
	C854.848083,1643.776611 851.726257,1639.223389 843.670288,1636.416992 
	C837.238037,1634.176147 830.470764,1632.914673 823.898560,1631.054565 
	C798.492126,1623.864868 777.284302,1610.147583 760.994995,1589.351074 
	C749.076538,1574.134766 743.203613,1557.197754 750.124878,1537.939453 
	C756.578186,1519.983398 766.715149,1504.306641 782.065918,1492.778564 
	C788.202820,1488.169678 795.537537,1484.719727 802.829346,1482.190674 
	C812.843872,1478.717041 822.503967,1482.526123 832.001648,1485.917847 
	C835.276306,1487.087158 838.906433,1488.429932 842.217224,1488.103149 
	C851.064453,1487.229980 852.548035,1483.780029 854.924805,1474.967407 
	C856.705322,1468.365601 852.924561,1460.035034 846.929810,1457.094727 
	C837.318420,1452.380615 827.197388,1451.008789 816.439270,1452.863281 
	C806.161865,1454.634644 796.500061,1457.646851 787.527771,1462.960327 
	C774.616943,1470.606079 763.047180,1479.900757 754.454651,1492.240845 
	C747.385559,1502.393066 741.058594,1513.084717 734.806702,1523.773682 
	C731.822144,1528.876465 729.775513,1534.527710 727.304016,1539.930542 
	C726.174866,1538.002197 726.011902,1536.272339 726.010620,1534.542358 
	C725.993408,1511.545044 726.014221,1488.547607 725.965637,1465.550415 
	C725.962341,1463.963989 725.848389,1462.198853 725.168335,1460.821777 
	C720.376404,1451.118652 702.942444,1449.538940 694.890625,1456.498657 
	C690.158325,1460.589111 689.157471,1465.933838 689.065552,1471.505737 
	C688.845642,1484.833862 688.994446,1498.168213 688.994385,1512.500000 
M1303.136597,1527.013794 
	C1297.304443,1527.009277 1291.466675,1527.168823 1285.641479,1526.966675 
	C1272.966797,1526.526855 1260.732666,1529.170288 1249.116577,1533.611084 
	C1228.848999,1541.359741 1210.575684,1552.402832 1196.234985,1569.215210 
	C1181.155640,1586.893555 1170.412109,1606.054443 1172.995850,1630.457886 
	C1174.634399,1645.932861 1181.905884,1657.615356 1196.317261,1663.504395 
	C1215.721313,1671.433472 1236.038818,1671.166870 1256.029785,1666.290527 
	C1274.264526,1661.842896 1290.264526,1652.703735 1303.482422,1639.079590 
	C1304.539551,1637.989990 1306.023804,1637.314453 1307.999268,1635.980713 
	C1307.999268,1638.714722 1307.935913,1640.513062 1308.012573,1642.305420 
	C1308.167847,1645.935669 1308.518188,1649.560791 1308.575684,1653.191284 
	C1308.731934,1663.057373 1314.675781,1666.923584 1323.531860,1668.053589 
	C1336.039185,1669.649292 1344.211304,1663.148560 1344.068848,1652.014771 
	C1343.819336,1632.521973 1343.892578,1613.022827 1344.081421,1593.528564 
	C1344.124023,1589.144897 1344.957031,1584.721680 1345.839966,1580.401245 
	C1349.885620,1560.606812 1345.131958,1542.273438 1324.588989,1533.029053 
	C1318.149170,1530.130859 1310.923950,1528.977783 1303.136597,1527.013794 
M915.026062,1530.543457 
	C911.531006,1528.955566 908.179565,1526.608154 904.515259,1525.915527 
	C890.969421,1523.354858 882.179932,1528.950928 882.079956,1542.753174 
	C881.825317,1577.903809 881.858948,1613.058838 882.187012,1648.208252 
	C882.223389,1652.106812 884.170227,1656.515747 886.520813,1659.750854 
	C890.976685,1665.883301 898.194153,1665.666992 904.704468,1664.794189 
	C914.025269,1663.544434 919.020386,1658.815308 919.011047,1648.124512 
	C918.980164,1612.972046 919.106018,1577.818726 918.850159,1542.668091 
	C918.821899,1538.787231 916.721130,1534.921387 915.026062,1530.543457 
M914.801575,1493.505859 
	C919.334045,1490.033325 921.501770,1485.570312 921.052368,1479.749268 
	C920.771362,1476.109497 921.197876,1472.415405 920.922913,1468.774658 
	C920.769409,1466.742432 920.164612,1464.587036 919.188843,1462.800903 
	C914.547852,1454.306152 903.003357,1452.688110 893.856140,1454.666748 
	C884.201111,1456.755249 879.078552,1463.168335 879.961487,1472.899414 
	C880.216125,1475.705688 880.080078,1478.557251 879.985474,1481.383423 
	C879.763062,1488.024658 883.272095,1492.366699 888.919922,1494.872314 
	C897.383728,1498.627563 905.879333,1497.936401 914.801575,1493.505859 
z"/>
<path fill="#33A848" opacity="1.000000" stroke="none" 
	d="
M622.878662,775.963684 
	C626.164124,765.518311 628.757080,754.789490 632.890198,744.691101 
	C639.845947,727.696289 647.779785,711.101746 656.070068,694.155334 
	C668.325134,693.981201 679.812317,693.994202 691.299438,693.998962 
	C702.620178,694.003662 713.940857,694.000000 725.261597,694.000000 
	C736.748779,694.000000 748.315552,694.840088 759.700562,693.761536 
	C770.878845,692.702637 781.931091,697.913574 792.991455,693.762451 
	C826.451782,693.841614 859.912476,694.031982 893.372009,693.908813 
	C900.289551,693.883301 907.202881,692.691345 914.118103,692.037048 
	C912.847168,693.776794 911.576294,695.516479 910.305359,697.256226 
	C910.518555,697.435852 910.731812,697.615479 910.945007,697.795044 
	C916.057983,693.609009 921.170898,689.422913 926.702637,685.358154 
	C926.957336,687.054077 926.793213,688.628784 926.582336,690.652100 
	C928.516602,690.773499 930.302673,690.973633 932.089600,690.982422 
	C939.583435,691.019470 947.077576,690.999146 954.571594,691.000000 
	C978.385864,691.002686 1002.200195,690.986938 1026.014404,691.029724 
	C1029.307739,691.035645 1032.946167,690.657104 1034.040039,695.115906 
	C1026.973999,700.426880 1019.752380,705.545715 1012.888672,711.106384 
	C1006.784790,716.051453 1001.077698,721.486328 995.652893,727.543335 
	C1047.451050,690.793335 1105.113770,671.761658 1168.151733,667.919861 
	C1231.417725,664.064087 1291.354126,675.644653 1347.815552,704.341919 
	C1347.744263,704.851624 1347.673096,705.361328 1347.601807,705.871094 
	C1345.198120,705.532654 1342.678223,705.546936 1340.409302,704.799377 
	C1324.160889,699.444824 1307.588867,695.468933 1290.541138,694.069946 
	C1273.771484,692.693909 1256.869507,690.507568 1240.162476,691.360413 
	C1214.919434,692.648926 1191.106323,700.313782 1169.534058,713.990112 
	C1154.745850,723.365417 1141.953735,734.769592 1134.582764,751.020996 
	C1131.986450,756.745239 1130.787476,763.103210 1128.640259,769.812500 
	C1126.245728,777.054626 1120.873779,777.018616 1115.377075,777.017822 
	C954.510742,776.994263 793.644409,777.005005 632.778076,776.955750 
	C629.478149,776.954712 626.178528,776.308777 622.878662,775.963684 
M992.983582,729.114929 
	C992.470520,729.540283 991.957458,729.965698 990.954224,730.797424 
	C992.215942,730.797424 992.961121,731.010803 993.362488,730.731018 
	C993.693420,730.500366 993.617432,729.685730 992.983582,729.114929 
z"/>
<path fill="#1D5887" opacity="1.000000" stroke="none" 
	d="
M836.990540,1161.172485 
	C849.908997,1163.582397 862.804688,1166.125366 875.755310,1168.347778 
	C882.567017,1169.516724 889.456421,1170.639771 896.342896,1170.886353 
	C914.109375,1171.522217 931.896484,1172.031860 949.670166,1171.897705 
	C970.649841,1171.739258 991.350220,1168.721924 1011.913757,1164.546021 
	C1034.552246,1159.948730 1056.814575,1153.973633 1078.027954,1144.899780 
	C1094.235840,1137.966797 1110.354980,1130.479614 1125.522461,1121.554810 
	C1141.778564,1111.989380 1157.728149,1101.484497 1172.237427,1089.486328 
	C1186.705566,1077.522217 1199.274780,1063.250488 1212.561401,1049.876099 
	C1216.242554,1046.170654 1219.514038,1042.058228 1223.521973,1037.510132 
	C1223.521973,1039.159302 1223.865845,1040.241211 1223.470947,1040.810059 
	C1216.248535,1051.211304 1209.521606,1062.032593 1201.489258,1071.775024 
	C1192.548584,1082.618774 1182.595703,1092.658081 1172.739014,1102.709717 
	C1154.119263,1121.697632 1132.807495,1137.250854 1110.101074,1150.989258 
	C1088.846436,1163.849365 1066.161255,1173.609741 1042.718628,1181.512085 
	C1024.007202,1187.819702 1004.713318,1191.921143 985.184021,1195.165527 
	C959.818420,1199.379761 934.305847,1199.736816 908.815186,1198.785645 
	C887.764404,1198.000122 866.830872,1195.030029 846.359314,1189.637085 
	C834.960571,1186.634155 823.592773,1183.513794 811.929626,1180.887817 
	C819.497131,1185.015137 826.862732,1189.581909 834.676575,1193.173462 
	C848.582764,1199.565063 862.603577,1205.768555 876.860962,1211.320068 
	C897.935669,1219.526245 919.956604,1224.597900 942.121460,1228.745850 
	C953.904968,1230.951172 965.940491,1232.273071 977.918213,1232.869019 
	C995.942261,1233.766113 1014.078186,1234.756714 1032.050415,1233.710938 
	C1050.920166,1232.613037 1069.743530,1229.707886 1088.424316,1226.610229 
	C1115.488281,1222.122437 1141.501343,1213.450562 1166.475830,1202.419678 
	C1185.115112,1194.186890 1203.021362,1184.080200 1220.576538,1173.665527 
	C1239.315674,1162.548462 1256.622559,1149.264648 1272.379272,1134.091187 
	C1273.186646,1133.313721 1274.300903,1132.854858 1275.940796,1132.047363 
	C1284.708984,1126.201050 1293.926270,1126.717041 1303.108765,1127.040894 
	C1299.315063,1131.947266 1295.908813,1137.223267 1291.649902,1141.685669 
	C1281.648071,1152.165527 1271.681274,1162.751831 1260.892700,1172.391235 
	C1243.775879,1187.685181 1226.009888,1202.354980 1205.848511,1213.526123 
	C1187.532959,1223.674438 1169.154663,1233.970459 1149.927856,1242.138794 
	C1131.512085,1249.962524 1112.224731,1256.113525 1092.842896,1261.168823 
	C1076.357910,1265.468506 1059.267822,1267.780762 1042.307129,1269.824341 
	C1026.905762,1271.680054 1011.307617,1272.902466 995.815247,1272.726562 
	C979.686707,1272.543457 963.563965,1270.529419 947.468994,1268.997803 
	C921.256165,1266.503540 895.919617,1259.847778 871.106934,1251.404297 
	C847.486694,1243.366821 825.037659,1232.666748 803.297607,1220.288330 
	C782.439453,1208.412231 763.289551,1194.290771 744.794678,1179.172119 
	C739.668152,1174.981445 735.052185,1170.166260 730.501099,1165.330688 
	C740.900574,1164.680908 750.999390,1164.104492 761.101440,1164.042236 
	C784.317810,1163.898926 807.536255,1164.078491 830.751892,1163.887939 
	C832.838745,1163.870850 834.911377,1162.118896 836.990540,1161.172485 
z"/>
<path fill="#30A447" opacity="1.000000" stroke="none" 
	d="
M622.576904,776.193970 
	C626.178528,776.308777 629.478149,776.954712 632.778076,776.955750 
	C793.644409,777.005005 954.510742,776.994263 1115.377075,777.017822 
	C1120.873779,777.018616 1126.245728,777.054626 1128.576538,770.229248 
	C1127.783569,782.545471 1131.317261,793.899597 1138.592407,803.913818 
	C1146.953369,815.422485 1157.969360,824.048645 1170.457642,830.751587 
	C1176.095337,833.777588 1181.913574,836.467468 1187.625977,839.864258 
	C1183.554932,840.612610 1179.508179,840.973816 1175.461060,840.975708 
	C1103.192139,841.009766 1030.923218,840.999878 958.654236,841.002441 
	C956.989380,841.002502 955.089355,840.536926 953.717896,841.180786 
	C951.916199,842.026550 950.530640,843.758911 948.966187,845.110046 
	C947.416016,844.597900 945.865845,844.085754 944.059937,842.974426 
	C943.150635,840.039917 942.222046,838.545471 939.962891,841.118774 
	C933.484009,838.750610 926.965637,836.484436 920.533081,833.996399 
	C895.068542,824.146606 868.806885,817.060181 841.984863,812.271118 
	C829.382751,810.021118 816.502136,809.307190 803.736084,808.011597 
	C798.814514,807.511963 793.862976,807.089783 788.921143,807.041443 
	C754.055176,806.700745 720.013062,811.432556 687.106140,823.445740 
	C662.221619,832.530212 638.956177,844.460938 618.275940,861.174988 
	C615.592407,863.343933 612.755310,865.324463 609.958496,867.349731 
	C609.608032,867.603516 609.068176,867.595825 609.066406,867.596252 
	C609.066406,861.374390 608.522705,855.122620 609.184387,849.001160 
	C610.401489,837.741943 611.991455,826.497253 614.049377,815.361694 
	C616.278564,803.299133 619.224731,791.369141 621.841248,779.377625 
	C622.052917,778.407837 622.133545,777.409424 622.576904,776.193970 
z"/>
<path fill="#2FA246" opacity="1.000000" stroke="none" 
	d="
M949.165527,845.400757 
	C950.530640,843.758911 951.916199,842.026550 953.717896,841.180786 
	C955.089355,840.536926 956.989380,841.002502 958.654236,841.002441 
	C1030.923218,840.999878 1103.192139,841.009766 1175.461060,840.975708 
	C1179.508179,840.973816 1183.554932,840.612610 1187.822266,840.153442 
	C1202.876953,844.682800 1217.488647,850.404907 1232.603271,854.030884 
	C1250.436035,858.309204 1268.614380,861.457642 1286.807495,863.837952 
	C1305.922729,866.338867 1325.221558,867.498718 1344.462280,868.950867 
	C1353.711426,869.648865 1363.015259,869.589539 1372.286987,870.028503 
	C1378.028198,870.300293 1383.755493,870.863892 1391.104248,871.418457 
	C1386.268433,875.471008 1382.465332,878.848328 1378.466553,881.975464 
	C1363.262939,893.864868 1347.282104,904.589661 1329.682495,912.614746 
	C1310.827515,921.212219 1291.138306,927.048096 1270.769653,931.226196 
	C1245.996460,936.307678 1221.063721,936.450073 1196.083496,935.802795 
	C1184.621338,935.505798 1173.147949,933.575684 1161.790771,931.709595 
	C1136.602417,927.571106 1111.987793,921.047668 1088.109375,912.015320 
	C1074.734619,906.956116 1061.325073,901.814697 1048.470337,895.595886 
	C1028.489502,885.929504 1009.029297,875.192810 989.230713,865.141785 
	C976.048157,858.449402 962.660645,852.160767 949.165527,845.400757 
z"/>
<path fill="#37B149" opacity="1.000000" stroke="none" 
	d="
M729.961060,597.899597 
	C738.462158,590.331116 746.481018,582.115051 755.575439,575.343384 
	C769.776001,564.769653 784.275085,554.455505 799.451660,545.375183 
	C813.527283,536.953613 828.347900,529.580872 843.407471,523.054810 
	C858.832825,516.370117 874.703674,510.445496 890.828125,505.718567 
	C906.470642,501.132904 922.607788,498.089813 938.661499,495.083618 
	C967.518860,489.679840 996.775391,490.504974 1025.903320,491.225739 
	C1039.969482,491.573792 1054.146240,493.524200 1067.964844,496.288727 
	C1085.760132,499.848846 1103.536011,504.050903 1120.803589,509.587616 
	C1153.149048,519.959045 1183.683472,534.463623 1211.989868,553.426453 
	C1215.035889,555.466980 1218.195679,557.337463 1221.302734,559.286804 
	C1221.038086,559.864197 1220.773438,560.441650 1220.508911,561.019043 
	C1217.954956,560.149048 1215.339355,559.426208 1212.856689,558.386230 
	C1189.605469,548.645569 1165.436035,542.356201 1140.649780,537.826599 
	C1114.736084,533.090942 1088.640015,532.014587 1062.534058,533.277466 
	C1046.243042,534.065552 1030.010864,537.101807 1013.876892,539.858643 
	C991.035767,543.761536 969.134705,551.049561 947.783630,559.977844 
	C928.160217,568.183594 909.381470,578.007874 891.697571,589.850342 
	C883.940857,595.044800 876.342163,600.475098 867.978882,605.784180 
	C864.651672,605.513306 862.017517,605.036255 859.382874,605.033081 
	C818.903503,604.984375 778.424133,605.008118 737.944702,604.985962 
	C730.949097,604.982117 730.414368,604.445312 729.961060,597.899597 
z"/>
<path fill="#35AD48" opacity="1.000000" stroke="none" 
	d="
M729.657349,598.044922 
	C730.414368,604.445312 730.949097,604.982117 737.944702,604.985962 
	C778.424133,605.008118 818.903503,604.984375 859.382874,605.033081 
	C862.017517,605.036255 864.651672,605.513306 867.667603,605.937256 
	C858.739197,614.220032 849.165283,622.056458 840.199341,630.535828 
	C832.497864,637.819336 825.294739,645.662781 818.243103,653.589417 
	C813.228027,659.226929 808.815979,665.402710 804.177490,671.371338 
	C803.621216,672.087158 803.332947,673.011169 802.996399,673.686401 
	C819.380127,659.471680 835.784424,645.239136 852.850952,630.904785 
	C854.328796,630.164001 855.144287,629.525024 855.959717,628.885986 
	C856.452026,628.290955 856.944336,627.695862 858.067993,627.145508 
	C861.323853,627.460022 863.948059,627.961670 866.572937,627.964844 
	C908.118896,628.014648 949.665100,627.962585 991.210693,628.091431 
	C993.822449,628.099548 996.430115,629.407166 999.039673,630.110168 
	C984.323242,639.242249 969.323914,647.956177 954.992126,657.656494 
	C945.778748,663.892578 937.454346,671.468994 928.911621,678.658630 
	C923.991699,682.799194 919.430603,687.366272 914.413086,691.889160 
	C907.202881,692.691345 900.289551,693.883301 893.372009,693.908813 
	C859.912476,694.031982 826.451782,693.841614 792.991455,693.762451 
	C781.931091,697.913574 770.878845,692.702637 759.700562,693.761536 
	C748.315552,694.840088 736.748779,694.000000 725.261597,694.000000 
	C713.940857,694.000000 702.620178,694.003662 691.299438,693.998962 
	C679.812317,693.994202 668.325134,693.981201 656.362061,693.965942 
	C674.851440,657.799316 700.002014,626.383362 729.657349,598.044922 
M801.029297,675.743591 
	C800.955078,675.983948 800.880798,676.224304 800.806580,676.464722 
	C801.055908,676.530823 801.305237,676.596863 801.554565,676.662903 
	C801.577209,676.277100 801.599915,675.891235 801.029297,675.743591 
z"/>
<path fill="#206199" opacity="1.000000" stroke="none" 
	d="
M623.886169,991.044067 
	C620.923584,979.495972 617.080994,968.088684 615.204895,956.366699 
	C612.401428,938.850403 610.993835,921.111267 608.957825,903.470886 
	C608.735779,901.547852 608.285034,899.651184 607.804199,896.987793 
	C616.901184,896.987793 625.540955,896.581055 634.129395,897.072144 
	C652.263977,898.109070 670.394653,899.364197 688.483215,901.010193 
	C702.565491,902.291565 716.641602,903.910278 730.615112,906.062927 
	C762.365723,910.954041 793.446899,918.205200 822.870544,931.780823 
	C835.474670,937.596130 846.938782,944.949463 856.648926,954.496460 
	C866.588440,964.268921 873.654846,976.049561 871.604065,991.714050 
	C868.182983,995.832764 864.139038,996.039917 859.854187,996.036804 
	C788.283630,995.984436 716.713135,996.009949 645.142578,995.984985 
	C637.698669,995.982422 629.835815,997.567627 623.886169,991.044067 
z"/>
<path fill="#4CAF50" opacity="1.000000" stroke="none" 
	d="
M998.772949,1548.745972 
	C1005.046326,1542.421143 1011.164673,1536.440186 1017.167725,1530.345703 
	C1021.150635,1526.302490 1031.231812,1525.502197 1035.890747,1529.488037 
	C1040.113647,1533.100464 1041.279175,1538.453003 1037.978882,1542.929688 
	C1032.227173,1550.731689 1025.992065,1558.187500 1020.445618,1566.127930 
	C1012.026306,1578.181152 1005.961731,1591.579590 1003.424438,1605.954590 
	C1001.699280,1615.728149 1001.488892,1626.284424 1007.784180,1635.178589 
	C1015.550476,1646.151001 1027.248779,1647.709717 1039.343384,1646.901245 
	C1052.989502,1645.989136 1064.890747,1640.577515 1075.174316,1631.409180 
	C1087.672241,1620.266846 1095.701050,1606.499512 1098.804077,1590.219360 
	C1100.457520,1581.543579 1100.511108,1572.538208 1100.956665,1563.664917 
	C1101.265503,1557.515747 1101.003174,1551.338135 1101.009155,1545.173218 
	C1101.017090,1536.952148 1103.959229,1532.372681 1111.990723,1530.661133 
	C1120.092773,1528.934814 1129.543823,1528.929077 1133.364746,1536.056274 
	C1135.296509,1539.659546 1136.819824,1544.003418 1136.847656,1548.024170 
	C1137.104370,1585.174927 1136.973145,1622.328125 1137.033081,1659.480591 
	C1137.037598,1662.249023 1137.643677,1665.017090 1137.978394,1667.784180 
	C1139.162842,1677.575684 1136.904541,1686.893677 1133.499390,1695.882080 
	C1126.007690,1715.657349 1112.415771,1730.993408 1095.818115,1743.347656 
	C1082.275391,1753.428101 1066.935791,1760.777832 1050.346069,1764.609497 
	C1035.021362,1768.149292 1019.323853,1769.209473 1003.750488,1766.824829 
	C990.775269,1764.837891 979.109131,1759.766846 970.394104,1749.045532 
	C962.617188,1739.478516 962.168884,1723.286621 970.127502,1714.616211 
	C978.139465,1705.887451 993.514160,1709.439087 998.979309,1721.220703 
	C1001.739014,1727.169922 1004.826843,1732.896118 1010.492371,1736.739624 
	C1018.474915,1742.155029 1027.541870,1743.643066 1036.752319,1742.848755 
	C1047.794067,1741.896973 1058.625244,1739.600586 1068.543335,1734.047974 
	C1086.465210,1724.013916 1097.234619,1708.968140 1100.863647,1688.809326 
	C1101.473389,1685.422974 1101.922852,1681.957397 1101.947021,1678.524780 
	C1102.059814,1662.536621 1101.997070,1646.547119 1101.997070,1629.401245 
	C1099.141846,1632.698730 1096.754395,1635.166382 1094.695557,1637.882935 
	C1084.717651,1651.049683 1071.584229,1659.964966 1056.048584,1664.788940 
	C1034.619507,1671.442871 1012.875916,1671.649902 991.673950,1663.732300 
	C975.212219,1657.584961 964.161011,1643.534058 964.050781,1624.986328 
	C963.945251,1607.229614 970.340881,1591.230713 979.194763,1576.336060 
	C984.877075,1566.776733 992.059082,1558.109009 998.772949,1548.745972 
z"/>
<path fill="#1F5F93" opacity="1.000000" stroke="none" 
	d="
M623.925659,991.445923 
	C629.835815,997.567627 637.698669,995.982422 645.142578,995.984985 
	C716.713135,996.009949 788.283630,995.984436 859.854187,996.036804 
	C864.139038,996.039917 868.182983,995.832764 871.545776,992.171753 
	C872.006287,1002.696106 867.120667,1011.415344 860.366333,1019.021362 
	C843.996582,1037.455078 822.487854,1046.182251 798.900696,1051.106445 
	C782.997131,1054.426514 766.895203,1054.996704 750.956360,1053.712646 
	C732.502441,1052.226196 714.213440,1048.695435 695.849792,1046.073730 
	C695.047241,1045.959106 694.214172,1046.058838 693.395264,1046.058838 
	C693.244324,1046.557983 693.093384,1047.057129 692.942444,1047.556274 
	C705.655640,1051.708496 718.206970,1056.483521 731.126770,1059.840576 
	C744.427979,1063.296997 758.089844,1065.363647 771.591125,1068.052734 
	C784.955078,1070.714233 798.473694,1071.794556 812.649902,1072.262085 
	C813.818909,1072.369629 814.412231,1072.270508 815.005493,1072.171265 
	C826.220459,1071.845703 837.437683,1071.582031 848.649658,1071.174194 
	C857.196045,1070.863525 865.805115,1070.903076 874.258850,1069.805664 
	C882.471680,1068.739624 890.644653,1066.851685 898.619507,1064.570923 
	C917.218323,1059.251343 936.168396,1054.692017 954.090332,1047.589478 
	C977.655945,1038.250488 1000.052856,1026.226929 1019.721069,1009.786621 
	C1025.018311,1005.358765 1030.434082,1001.072205 1035.822021,996.753784 
	C1036.242676,996.416443 1036.872925,996.340698 1038.103149,996.830750 
	C1036.848511,998.610352 1035.804932,1000.594666 1034.307007,1002.138184 
	C1017.593567,1019.360352 1000.660767,1036.269775 979.845947,1048.787842 
	C962.468079,1059.239014 944.878113,1069.151733 925.773499,1076.138794 
	C924.696960,1076.532593 923.707886,1077.165649 922.124756,1077.536743 
	C918.146790,1075.761963 915.707336,1076.864868 914.040649,1080.106812 
	C913.276672,1080.404419 912.512695,1080.702026 911.042114,1080.895020 
	C909.690613,1080.624512 909.041687,1080.300415 908.401550,1080.317139 
	C900.757751,1080.515137 893.115662,1080.954712 885.472473,1080.967651 
	C845.310913,1081.036011 805.149109,1081.038208 764.987488,1080.983276 
	C745.847046,1080.957031 726.705811,1080.824219 707.567505,1080.556152 
	C704.497498,1080.513306 701.451843,1079.431519 698.372864,1078.980713 
	C697.119385,1078.797119 695.789062,1078.891602 694.524658,1079.073975 
	C690.447998,1079.661621 686.403870,1080.709229 682.313782,1080.915161 
	C675.854736,1081.240356 669.368530,1081.026367 662.893860,1081.040649 
	C660.697632,1077.603394 658.250244,1074.299316 656.345703,1070.707397 
	C643.430969,1046.350342 632.694458,1021.062683 624.338013,994.779968 
	C624.044373,993.856384 624.081909,992.827576 623.925659,991.445923 
z"/>
<path fill="#3F51B5" opacity="1.000000" stroke="none" 
	d="
M688.994385,1512.000000 
	C688.994446,1498.168213 688.845642,1484.833862 689.065552,1471.505737 
	C689.157471,1465.933838 690.158325,1460.589111 694.890625,1456.498657 
	C702.942444,1449.538940 720.376404,1451.118652 725.168335,1460.821777 
	C725.848389,1462.198853 725.962341,1463.963989 725.965637,1465.550415 
	C726.014221,1488.547607 725.993408,1511.545044 726.010620,1534.542358 
	C726.011902,1536.272339 726.174866,1538.002197 727.304016,1539.930542 
	C729.775513,1534.527710 731.822144,1528.876465 734.806702,1523.773682 
	C741.058594,1513.084717 747.385559,1502.393066 754.454651,1492.240845 
	C763.047180,1479.900757 774.616943,1470.606079 787.527771,1462.960327 
	C796.500061,1457.646851 806.161865,1454.634644 816.439270,1452.863281 
	C827.197388,1451.008789 837.318420,1452.380615 846.929810,1457.094727 
	C852.924561,1460.035034 856.705322,1468.365601 854.924805,1474.967407 
	C852.548035,1483.780029 851.064453,1487.229980 842.217224,1488.103149 
	C838.906433,1488.429932 835.276306,1487.087158 832.001648,1485.917847 
	C822.503967,1482.526123 812.843872,1478.717041 802.829346,1482.190674 
	C795.537537,1484.719727 788.202820,1488.169678 782.065918,1492.778564 
	C766.715149,1504.306641 756.578186,1519.983398 750.124878,1537.939453 
	C743.203613,1557.197754 749.076538,1574.134766 760.994995,1589.351074 
	C777.284302,1610.147583 798.492126,1623.864868 823.898560,1631.054565 
	C830.470764,1632.914673 837.238037,1634.176147 843.670288,1636.416992 
	C851.726257,1639.223389 854.848083,1643.776611 853.886475,1651.392700 
	C852.890442,1659.280640 850.490295,1662.476318 841.299927,1664.935059 
	C831.205750,1667.635498 821.460327,1664.845093 811.765320,1662.356323 
	C793.996094,1657.794922 779.013428,1648.068970 766.216858,1635.458740 
	C748.471436,1617.971558 736.047974,1596.957886 729.013184,1572.915649 
	C728.536743,1571.287598 727.946655,1569.692871 727.409485,1568.082642 
	C726.939392,1568.128906 726.469360,1568.175171 725.999268,1568.221436 
	C725.999268,1569.915283 725.999268,1571.609131 725.999268,1573.302979 
	C725.999146,1599.466675 726.002869,1625.630371 725.996704,1651.794067 
	C725.994873,1659.709839 723.184387,1663.620239 715.237854,1665.207153 
	C707.388794,1666.774780 699.040039,1667.877319 693.335632,1660.530884 
	C690.926819,1657.428589 689.197571,1652.885010 689.173340,1648.984253 
	C688.891235,1603.490845 688.993652,1557.995117 688.994385,1512.000000 
z"/>
<path fill="#1E5C8E" opacity="1.000000" stroke="none" 
	d="
M662.953125,1081.393677 
	C669.368530,1081.026367 675.854736,1081.240356 682.313782,1080.915161 
	C686.403870,1080.709229 690.447998,1079.661621 694.524658,1079.073975 
	C695.789062,1078.891602 697.119385,1078.797119 698.372864,1078.980713 
	C701.451843,1079.431519 704.497498,1080.513306 707.567505,1080.556152 
	C726.705811,1080.824219 745.847046,1080.957031 764.987488,1080.983276 
	C805.149109,1081.038208 845.310913,1081.036011 885.472473,1080.967651 
	C893.115662,1080.954712 900.757751,1080.515137 908.401550,1080.317139 
	C909.041687,1080.300415 909.690613,1080.624512 910.714661,1080.921387 
	C898.955017,1084.366455 886.975830,1088.577026 874.638000,1090.773560 
	C858.293701,1093.683472 841.679565,1095.111084 825.162048,1097.006470 
	C806.456055,1099.153076 787.808899,1097.884033 769.128174,1096.125610 
	C750.717224,1094.392456 732.653320,1091.112549 714.877502,1086.099243 
	C714.434509,1085.974365 713.906128,1086.152222 711.901245,1086.302734 
	C718.942688,1089.500488 724.677795,1092.342896 730.590820,1094.748047 
	C753.980225,1104.261841 778.347473,1110.565430 802.977356,1115.724365 
	C812.609192,1117.741577 822.592163,1118.411011 832.455322,1118.925415 
	C851.327698,1119.909790 870.257141,1121.284790 889.109314,1120.718140 
	C905.175781,1120.235229 921.187073,1117.409668 937.186707,1115.341309 
	C956.662476,1112.822998 975.459045,1107.230225 993.847351,1100.712646 
	C1012.914429,1093.954712 1031.906860,1086.661499 1048.992188,1075.438599 
	C1061.229980,1067.399902 1073.772095,1059.748413 1085.450073,1050.956787 
	C1095.842407,1043.133057 1105.238403,1033.985107 1115.061035,1025.406860 
	C1116.377197,1024.257446 1117.617798,1023.021423 1118.893311,1021.825562 
	C1119.352417,1022.201538 1119.811523,1022.577576 1120.270752,1022.953613 
	C1117.584839,1026.404175 1115.042725,1029.978638 1112.190186,1033.285400 
	C1092.066406,1056.613892 1069.022949,1076.596069 1042.751831,1092.698853 
	C1023.414062,1104.552002 1003.585938,1115.534302 981.705383,1122.157959 
	C966.947998,1126.625366 952.320496,1131.726074 937.309570,1135.093628 
	C922.755371,1138.358398 907.846558,1140.416382 892.981628,1141.819336 
	C877.500427,1143.280640 861.859680,1144.200195 846.336426,1143.741333 
	C831.053955,1143.289551 815.728821,1141.457153 800.609985,1139.051270 
	C783.979065,1136.404785 767.562073,1132.413818 750.864929,1128.969971 
	C757.293884,1131.997314 763.608032,1135.299561 770.172546,1137.991333 
	C782.797058,1143.167725 795.451599,1148.313965 808.308472,1152.866089 
	C817.428467,1156.095215 826.900940,1158.328613 836.603271,1161.089478 
	C834.911377,1162.118896 832.838745,1163.870850 830.751892,1163.887939 
	C807.536255,1164.078491 784.317810,1163.898926 761.101440,1164.042236 
	C750.999390,1164.104492 740.900574,1164.680908 730.345947,1165.030518 
	C718.426941,1152.712158 706.175781,1141.014526 695.706787,1127.894653 
	C683.967651,1113.182983 673.840759,1097.185059 662.953125,1081.393677 
z"/>
<path fill="#36AF49" opacity="1.000000" stroke="none" 
	d="
M999.402466,630.053223 
	C996.430115,629.407166 993.822449,628.099548 991.210693,628.091431 
	C949.665100,627.962585 908.118896,628.014648 866.572937,627.964844 
	C863.948059,627.961670 861.323853,627.460022 858.325684,627.004883 
	C873.443542,615.739441 889.805359,606.079407 906.871033,597.682861 
	C938.204651,582.265991 970.903564,570.709656 1005.445129,565.067261 
	C1021.472534,562.449158 1037.640869,560.360779 1053.828979,559.154785 
	C1069.207153,558.009094 1084.739136,557.432434 1100.124146,558.197632 
	C1128.042969,559.586060 1155.585693,564.098999 1182.647827,571.304443 
	C1211.834595,579.075500 1239.599121,590.399963 1266.182739,604.662598 
	C1271.907349,607.733948 1277.442505,611.158447 1283.064819,614.420288 
	C1282.928101,614.879028 1282.791382,615.337830 1282.654663,615.796570 
	C1281.117188,615.529236 1279.506592,615.471436 1278.053345,614.963257 
	C1256.835327,607.542664 1235.355835,601.057556 1213.019531,598.038208 
	C1200.467773,596.341431 1187.841919,595.110413 1175.216675,594.065613 
	C1166.635864,593.355408 1157.949341,592.592896 1149.396606,593.159607 
	C1132.837524,594.256958 1116.302368,595.972351 1099.824341,597.980652 
	C1072.184814,601.349426 1046.089355,610.477844 1020.287903,620.432373 
	C1013.262756,623.142761 1006.596313,626.782898 999.402466,630.053223 
z"/>
<path fill="#35AD48" opacity="1.000000" stroke="none" 
	d="
M1034.361816,695.057373 
	C1032.946167,690.657104 1029.307739,691.035645 1026.014404,691.029724 
	C1002.200195,690.986938 978.385864,691.002686 954.571594,691.000000 
	C947.077576,690.999146 939.583435,691.019470 932.089600,690.982422 
	C930.302673,690.973633 928.516602,690.773499 926.582336,690.652100 
	C926.793213,688.628784 926.957336,687.054077 927.009766,685.213684 
	C939.913208,676.140320 952.556824,666.709778 966.031799,658.673218 
	C985.550476,647.032166 1006.520569,638.359863 1028.194092,631.453186 
	C1047.440430,625.320007 1067.131470,621.256470 1087.035645,617.871216 
	C1112.668701,613.511475 1138.486816,613.347778 1164.258911,614.257019 
	C1179.453369,614.793152 1194.693115,617.173157 1209.666870,620.017578 
	C1226.837280,623.279297 1243.926147,627.325989 1260.688721,632.260559 
	C1272.901978,635.855896 1284.670898,641.118530 1296.372437,646.243896 
	C1305.979980,650.451843 1315.196533,655.552185 1324.586426,660.257019 
	C1324.542114,660.710388 1324.497803,661.163696 1324.453491,661.617004 
	C1322.807129,661.496399 1321.089233,661.638489 1319.525513,661.213684 
	C1306.744507,657.741760 1294.121582,653.559509 1281.194214,650.791565 
	C1268.704834,648.117432 1255.954468,646.448059 1243.237305,645.115234 
	C1231.419678,643.876770 1219.463013,642.762451 1207.622681,643.174866 
	C1176.025635,644.275330 1144.809082,647.994812 1114.421021,657.675110 
	C1090.842529,665.186279 1068.253906,674.607422 1047.061523,687.370972 
	C1044.987427,688.620117 1042.859375,689.779602 1040.158081,690.930969 
	C1038.742798,691.603027 1037.925903,692.324768 1037.108887,693.046509 
	C1036.300415,693.697266 1035.492065,694.348022 1034.361816,695.057373 
z"/>
<path fill="#4CAF50" opacity="1.000000" stroke="none" 
	d="
M1303.597412,1527.019775 
	C1310.923950,1528.977783 1318.149170,1530.130859 1324.588989,1533.029053 
	C1345.131958,1542.273438 1349.885620,1560.606812 1345.839966,1580.401245 
	C1344.957031,1584.721680 1344.124023,1589.144897 1344.081421,1593.528564 
	C1343.892578,1613.022827 1343.819336,1632.521973 1344.068848,1652.014771 
	C1344.211304,1663.148560 1336.039185,1669.649292 1323.531860,1668.053589 
	C1314.675781,1666.923584 1308.731934,1663.057373 1308.575684,1653.191284 
	C1308.518188,1649.560791 1308.167847,1645.935669 1308.012573,1642.305420 
	C1307.935913,1640.513062 1307.999268,1638.714722 1307.999268,1635.980713 
	C1306.023804,1637.314453 1304.539551,1637.989990 1303.482422,1639.079590 
	C1290.264526,1652.703735 1274.264526,1661.842896 1256.029785,1666.290527 
	C1236.038818,1671.166870 1215.721313,1671.433472 1196.317261,1663.504395 
	C1181.905884,1657.615356 1174.634399,1645.932861 1172.995850,1630.457886 
	C1170.412109,1606.054443 1181.155640,1586.893555 1196.234985,1569.215210 
	C1210.575684,1552.402832 1228.848999,1541.359741 1249.116577,1533.611084 
	C1260.732666,1529.170288 1272.966797,1526.526855 1285.641479,1526.966675 
	C1291.466675,1527.168823 1297.304443,1527.009277 1303.597412,1527.019775 
M1297.566895,1615.984009 
	C1303.605591,1607.122192 1308.050415,1597.647949 1309.607666,1586.883057 
	C1312.380981,1567.711792 1304.107422,1552.561279 1284.421509,1549.372437 
	C1265.774170,1546.351685 1248.470093,1552.553467 1234.030396,1564.663208 
	C1217.368286,1578.636963 1208.880371,1596.678101 1211.089233,1618.799805 
	C1211.879639,1626.715088 1215.365601,1633.625122 1222.347778,1638.041138 
	C1234.555298,1645.762207 1247.953613,1644.979492 1260.861572,1641.328491 
	C1275.442627,1637.204102 1287.591553,1628.570190 1297.566895,1615.984009 
z"/>
<path fill="#3F51B5" opacity="1.000000" stroke="none" 
	d="
M915.303833,1530.796021 
	C916.721130,1534.921387 918.821899,1538.787231 918.850159,1542.668091 
	C919.106018,1577.818726 918.980164,1612.972046 919.011047,1648.124512 
	C919.020386,1658.815308 914.025269,1663.544434 904.704468,1664.794189 
	C898.194153,1665.666992 890.976685,1665.883301 886.520813,1659.750854 
	C884.170227,1656.515747 882.223389,1652.106812 882.187012,1648.208252 
	C881.858948,1613.058838 881.825317,1577.903809 882.079956,1542.753174 
	C882.179932,1528.950928 890.969421,1523.354858 904.515259,1525.915527 
	C908.179565,1526.608154 911.531006,1528.955566 915.303833,1530.796021 
z"/>
<path fill="#1F5F93" opacity="1.000000" stroke="none" 
	d="
M1303.402100,1126.881836 
	C1293.926270,1126.717041 1284.708984,1126.201050 1276.247559,1131.906128 
	C1282.694824,1124.718262 1289.526855,1117.492798 1296.308350,1110.220337 
	C1312.095947,1093.289551 1325.790527,1074.760742 1337.942993,1055.095581 
	C1352.117554,1032.157715 1362.921509,1007.636841 1371.411377,982.090271 
	C1377.275146,964.445984 1381.686768,946.439636 1383.997559,927.957031 
	C1384.995117,919.977600 1385.953979,911.992798 1387.046021,904.026306 
	C1387.192017,902.961731 1388.020020,901.990662 1388.983398,900.082703 
	C1388.983398,906.637634 1389.540771,912.021240 1388.872803,917.248230 
	C1387.248779,929.955139 1385.447754,942.666321 1382.981323,955.231140 
	C1380.519531,967.772156 1377.441528,980.212097 1374.137695,992.563660 
	C1367.597778,1017.012939 1357.716553,1040.163330 1346.140015,1062.627563 
	C1334.711914,1084.803955 1320.769775,1105.327881 1305.473999,1124.973633 
	C1304.967651,1125.624023 1304.291992,1126.142822 1303.402100,1126.881836 
z"/>
<path fill="#3F51B5" opacity="1.000000" stroke="none" 
	d="
M914.470154,1493.688843 
	C905.879333,1497.936401 897.383728,1498.627563 888.919922,1494.872314 
	C883.272095,1492.366699 879.763062,1488.024658 879.985474,1481.383423 
	C880.080078,1478.557251 880.216125,1475.705688 879.961487,1472.899414 
	C879.078552,1463.168335 884.201111,1456.755249 893.856140,1454.666748 
	C903.003357,1452.688110 914.547852,1454.306152 919.188843,1462.800903 
	C920.164612,1464.587036 920.769409,1466.742432 920.922913,1468.774658 
	C921.197876,1472.415405 920.771362,1476.109497 921.052368,1479.749268 
	C921.501770,1485.570312 919.334045,1490.033325 914.470154,1493.688843 
z"/>
<path fill="#1E5C8E" opacity="1.000000" stroke="none" 
	d="
M914.416748,1080.044922 
	C915.707336,1076.864868 918.146790,1075.761963 921.774170,1077.606689 
	C919.582153,1078.545776 917.187500,1079.264404 914.416748,1080.044922 
z"/>
<path fill="#2FA246" opacity="1.000000" stroke="none" 
	d="
M940.138306,841.395569 
	C942.222046,838.545471 943.150635,840.039917 943.845947,842.692261 
	C942.696350,842.563599 941.505066,842.117981 940.138306,841.395569 
z"/>
<path fill="#33A848" opacity="1.000000" stroke="none" 
	d="
M1037.422241,693.017944 
	C1037.925903,692.324768 1038.742798,691.603027 1039.804688,690.993408 
	C1039.278076,691.733398 1038.506836,692.361389 1037.422241,693.017944 
z"/>
<path fill="#36AF49" opacity="1.000000" stroke="none" 
	d="
M855.637024,628.943237 
	C855.144287,629.525024 854.328796,630.164001 853.200439,630.881348 
	C853.696533,630.306641 854.505371,629.653503 855.637024,628.943237 
z"/>
<path fill="#1E5C8E" opacity="1.000000" stroke="none" 
	d="
M814.672119,1072.114502 
	C814.412231,1072.270508 813.818909,1072.369629 813.110657,1072.320068 
	C813.443359,1072.133423 813.891113,1072.095581 814.672119,1072.114502 
z"/>
<path fill="#000000" opacity="1.000000" stroke="none" 
	d="
M993.352661,729.122437 
	C993.617432,729.685730 993.693420,730.500366 993.362488,730.731018 
	C992.961121,731.010803 992.215942,730.797424 990.954224,730.797424 
	C991.957458,729.965698 992.470520,729.540283 993.352661,729.122437 
z"/>
<path fill="#000000" opacity="1.000000" stroke="none" 
	d="
M801.325928,675.624512 
	C801.599915,675.891235 801.577209,676.277100 801.554565,676.662903 
	C801.305237,676.596863 801.055908,676.530823 800.806519,676.464722 
	C800.880798,676.224304 800.955078,675.983948 801.325928,675.624512 
z"/>
<path fill="#000000" opacity="1.000000" stroke="none" 
	d="
M1297.320068,1616.250854 
	C1287.591553,1628.570190 1275.442627,1637.204102 1260.861572,1641.328491 
	C1247.953613,1644.979492 1234.555298,1645.762207 1222.347778,1638.041138 
	C1215.365601,1633.625122 1211.879639,1626.715088 1211.089233,1618.799805 
	C1208.880371,1596.678101 1217.368286,1578.636963 1234.030396,1564.663208 
	C1248.470093,1552.553467 1265.774170,1546.351685 1284.421509,1549.372437 
	C1304.107422,1552.561279 1312.380981,1567.711792 1309.607666,1586.883057 
	C1308.050415,1597.647949 1303.605591,1607.122192 1297.320068,1616.250854 
z"/>
</svg>